<?xml version="1.0" encoding="UTF-8"?>
<svg width="411px" height="142px" viewBox="0 0 411 142" version="1.1" xmlns="http://www.w3.org/2000/svg" xmlns:xlink="http://www.w3.org/1999/xlink">
    <!-- Generator: Sketch 49.1 (51147) - http://www.bohemiancoding.com/sketch -->
    <title>fouryoushi_bg</title>
    <desc>Created with Sketch.</desc>
    <defs></defs>
    <g id="Page-1" stroke="none" stroke-width="1" fill="none" fill-rule="evenodd">
        <g id="Artboard-Copy-2" transform="translate(-708.000000, -1488.000000)">
            <g id="Group-13" transform="translate(392.000000, 1370.000000)">
                <g id="Group-12" transform="translate(316.000000, 118.000000)">
                    <g id="fouryoushi_bg">
                        <polygon id="Path-6" fill="#FFFFFF" points="1 7 1 9 0 133 1 135 6 135 6 140 9 140 9 141 403 140.490196 403 140 405 140 405 135 410 135 410 133.169935 410 9 410 7 405 7 405 2 403 2 403 1 9 1 9 2 6 2 6 7"></polygon>
                        <g id="Group-10" stroke="#CCCCCC">
                            <polyline id="Path-4" points="10.5 16 9.5 16 9.5 18 11.5 18 11.5 14 7.5 14 7.5 16 6.5 16 6.5 31"></polyline>
                            <polyline id="Path-4" transform="translate(9.000000, 76.750000) scale(1, -1) translate(-9.000000, -76.750000) " points="10.5 30.5 9.5 30.5 9.5 32.5 11.5 32.5 11.5 28.5 7.5 28.5 7.5 30.5 6.5 30.5 6.5 125"></polyline>
                            <polyline id="Path-4" transform="translate(403.000000, 22.490196) scale(-1, 1) translate(-403.000000, -22.490196) " points="404.5 15.9901961 403.5 15.9901961 403.5 17.9901961 405.5 17.9901961 405.5 13.9901961 401.5 13.9901961 401.5 15.9901961 400.5 15.9901961 400.5 30.9901961"></polyline>
                            <polyline id="Path-4" transform="translate(403.000000, 76.990196) scale(-1, -1) translate(-403.000000, -76.990196) " points="404.5 30.9901961 403.5 30.9901961 403.5 32.9901961 405.5 32.9901961 405.5 28.9901961 401.5 28.9901961 401.5 30.9901961 400.5 30.9901961 400.5 124.990196"></polyline>
                            <polyline id="Path-4-Copy" transform="translate(21.000000, 10.500000) scale(-1, 1) rotate(90.000000) translate(-21.000000, -10.500000) " points="22.5 4 21.5 4 21.5 6 23.5 6 23.5 2 19.5 2 19.5 4 18.5 4 18.5 19"></polyline>
                            <polyline id="Path-4-Copy" transform="translate(213.250000, 10.490196) rotate(90.000000) translate(-213.250000, -10.490196) " points="214.75 -173.759804 213.75 -173.759804 213.75 -171.759804 215.75 -171.759804 215.75 -175.759804 211.75 -175.759804 211.75 -173.759804 210.75 -173.759804 210.759804 196.740196"></polyline>
                            <polyline id="Path-4-Copy" transform="translate(21.000000, 10.500000) scale(-1, 1) rotate(90.000000) translate(-21.000000, -10.500000) " points="22.5 4 21.5 4 21.5 6 23.5 6 23.5 2 19.5 2 19.5 4 18.5 4 18.5 19"></polyline>
                            <polyline id="Path-4-Copy" transform="translate(213.250000, 10.490196) rotate(90.000000) translate(-213.250000, -10.490196) " points="214.75 -173.759804 213.75 -173.759804 213.75 -171.759804 215.75 -171.759804 215.75 -175.759804 211.75 -175.759804 211.75 -173.759804 210.75 -173.759804 210.759804 196.740196"></polyline>
                            <polyline id="Path-4-Copy" transform="translate(21.000000, 128.500000) scale(-1, -1) rotate(90.000000) translate(-21.000000, -128.500000) " points="22.5 122 21.5 122 21.5 124 23.5 124 23.5 120 19.5 120 19.5 122 18.5 122 18.5 137"></polyline>
                            <polyline id="Path-4-Copy" transform="translate(213.000000, 128.495098) scale(1, -1) rotate(90.000000) translate(-213.000000, -128.495098) " points="214.504902 -56.004902 213.504902 -56.004902 213.504902 -54.004902 215.504902 -54.004902 215.504902 -58.004902 211.504902 -58.004902 211.504902 -56.004902 210.504902 -56.004902 210.495098 314.995098"></polyline>
                            <polyline id="Path-4" points="4.5 9 3.5 9 3.5 11 5.5 11 5.5 7 1.5 7 1.5 9 0.5 9 0.5 24"></polyline>
                            <polyline id="Path-4" transform="translate(3.000000, 78.250000) scale(1, -1) translate(-3.000000, -78.250000) " points="4.5 23.5 3.5 23.5 3.5 25.5 5.5 25.5 5.5 21.5 1.5 21.5 1.5 23.5 0.5 23.5 0.5 135"></polyline>
                            <polyline id="Path-4" transform="translate(408.000000, 15.490196) scale(-1, 1) translate(-408.000000, -15.490196) " points="409.5 8.99019608 408.5 8.99019608 408.5 10.9901961 410.5 10.9901961 410.5 6.99019608 406.5 6.99019608 406.5 8.99019608 405.5 8.99019608 405.5 23.9901961"></polyline>
                            <polyline id="Path-4" transform="translate(408.000000, 78.490196) scale(-1, -1) translate(-408.000000, -78.490196) " points="409.5 23.9901961 408.5 23.9901961 408.5 25.9901961 410.5 25.9901961 410.5 21.9901961 406.5 21.9901961 406.5 23.9901961 405.5 23.9901961 405.5 134.990196"></polyline>
                            <polyline id="Path-4-Copy" transform="translate(15.000000, 3.500000) scale(-1, 1) rotate(90.000000) translate(-15.000000, -3.500000) " points="16.5 -3 15.5 -3 15.5 -1 17.5 -1 17.5 -5 13.5 -5 13.5 -3 12.5 -3 12.5 12"></polyline>
                            <polyline id="Path-4-Copy" transform="translate(212.750000, 3.490196) rotate(90.000000) translate(-212.750000, -3.490196) " points="214.25 -186.259804 213.25 -186.259804 213.25 -184.259804 215.25 -184.259804 215.25 -188.259804 211.25 -188.259804 211.25 -186.259804 210.25 -186.259804 210.259804 195.240196"></polyline>
                            <polyline id="Path-4-Copy" transform="translate(15.000000, 3.500000) scale(-1, 1) rotate(90.000000) translate(-15.000000, -3.500000) " points="16.5 -3 15.5 -3 15.5 -1 17.5 -1 17.5 -5 13.5 -5 13.5 -3 12.5 -3 12.5 12"></polyline>
                            <polyline id="Path-4-Copy" transform="translate(212.750000, 3.490196) rotate(90.000000) translate(-212.750000, -3.490196) " points="214.25 -186.259804 213.25 -186.259804 213.25 -184.259804 215.25 -184.259804 215.25 -188.259804 211.25 -188.259804 211.25 -186.259804 210.25 -186.259804 210.259804 195.240196"></polyline>
                            <polyline id="Path-4-Copy" transform="translate(15.000000, 138.500000) scale(-1, -1) rotate(90.000000) translate(-15.000000, -138.500000) " points="16.5 132 15.5 132 15.5 134 17.5 134 17.5 130 13.5 130 13.5 132 12.5 132 12.5 147"></polyline>
                            <polyline id="Path-4-Copy" transform="translate(212.500000, 138.495098) scale(1, -1) rotate(90.000000) translate(-212.500000, -138.495098) " points="214.004902 -51.504902 213.004902 -51.504902 213.004902 -49.504902 215.004902 -49.504902 215.004902 -53.504902 211.004902 -53.504902 211.004902 -51.504902 210.004902 -51.504902 209.995098 330.495098"></polyline>
                        </g>
                    </g>
                </g>
            </g>
        </g>
    </g>
</svg>