<?xml version="1.0" encoding="UTF-8"?>
<svg width="18px" height="18px" viewBox="0 0 18 18" version="1.1" xmlns="http://www.w3.org/2000/svg" xmlns:xlink="http://www.w3.org/1999/xlink">
    <!-- Generator: Sketch 49.1 (51147) - http://www.bohemiancoding.com/sketch -->
    <title>jbxx_ed</title>
    <desc>Created with Sketch.</desc>
    <defs></defs>
    <g id="Page-1" stroke="none" stroke-width="1" fill="none" fill-rule="evenodd">
        <g id="Artboard-15" transform="translate(-334.000000, -162.000000)" fill="#0C1222" fill-rule="nonzero">
            <g id="基本信息" transform="translate(9.000000, 145.000000)">
                <path d="M329.688638,30.3676471 C329.688638,30.6323529 329.688638,30.7647059 329.815358,30.8970588 C329.942078,31.0294118 330.068798,31.0294118 330.195518,31.0294118 L330.322238,31.0294118 L333.743677,30.1029412 L342.614074,20.8382353 C342.994234,20.4411765 343.247674,19.7794118 342.614074,19.1176471 L341.346874,17.7941176 C340.713274,17.1323529 340.079675,17.1323529 339.446075,17.9264706 L330.575678,26.9264706 L329.688638,30.3676471 Z M340.079675,18.7205882 C340.206395,18.5882353 340.459835,18.5882353 340.586555,18.7205882 L341.473594,19.6470588 C341.600314,19.7794118 341.600314,20.0441176 341.473594,20.1764706 L340.586555,21.1029412 L339.192635,19.6470588 L340.079675,18.7205882 Z M338.305595,20.5735294 L339.699515,22.0294118 L333.490237,28.5147059 L332.096318,27.0588235 L338.305595,20.5735294 Z M331.335998,27.9852941 L332.603197,29.3088235 L330.955838,29.7058824 L331.335998,27.9852941 Z M342.107194,23.75 C341.600314,23.75 341.346874,24.0147059 341.346874,24.2794118 L341.346874,32.75 C341.346874,33.1470588 340.966714,33.5441176 340.586555,33.5441176 L327.027519,33.5441176 C326.647359,33.5441176 326.2672,33.1470588 326.2672,32.75 L326.2672,19.1176471 C326.2672,18.7205882 326.647359,18.3235294 327.027519,18.3235294 L335.897916,18.3235294 C336.151356,18.3235294 336.404796,18.0588235 336.404796,17.6617647 C336.404796,17.2647059 336.151356,17 335.771196,17 L326.900799,17 C325.88704,17 325,17.9264706 325,18.9852941 L325,33.0147059 C325,34.0735294 325.88704,35 326.900799,35 L340.839994,35 C341.853754,35 342.740794,34.0735294 342.740794,33.0147059 L342.740794,24.4117647 C342.740794,24.0147059 342.487354,23.75 342.107194,23.75 Z" id="jbxx_ed"></path>
            </g>
        </g>
    </g>
</svg>