<?xml version="1.0" encoding="UTF-8"?>
<svg width="68px" height="199px" viewBox="0 0 68 199" version="1.1" xmlns="http://www.w3.org/2000/svg" xmlns:xlink="http://www.w3.org/1999/xlink">
    <!-- Generator: Sketch 49.1 (51147) - http://www.bohemiancoding.com/sketch -->
    <title>m_mzys_title</title>
    <desc>Created with Sketch.</desc>
    <defs></defs>
    <g id="Page-1" stroke="none" stroke-width="1" fill="none" fill-rule="evenodd">
        <g id="Artboard-6" transform="translate(-295.000000, -2379.000000)">
            <g id="m_mzys_title" transform="translate(296.000000, 2380.000000)">
                <g id="Group-9" stroke="#0064AE">
                    <g id="Group-10">
                        <polyline id="Path-4" points="4 8 3 8 3 10 5 10 5 6 1 6 1 8 0 8 0 23"></polyline>
                        <polyline id="Path-4" transform="translate(2.500000, 101.250000) scale(1, -1) translate(-2.500000, -101.250000) " points="4 14 3 14 3 16 5 16 5 12 1 12 1 14 0 14 0 190.5"></polyline>
                        <polyline id="Path-4" transform="translate(63.500000, 14.500000) scale(-1, 1) translate(-63.500000, -14.500000) " points="65 8 64 8 64 10 66 10 66 6 62 6 62 8 61 8 61 23"></polyline>
                        <polyline id="Path-4" transform="translate(63.500000, 102.000000) scale(-1, -1) translate(-63.500000, -102.000000) " points="65 15 64 15 64 17 66 17 66 13 62 13 62 15 61 15 61 191"></polyline>
                        <polyline id="Path-4-Copy" transform="translate(14.500000, 2.500000) scale(-1, 1) rotate(90.000000) translate(-14.500000, -2.500000) " points="16 -4 15 -4 15 -2 17 -2 17 -6 13 -6 13 -4 12 -4 12 11"></polyline>
                        <polyline id="Path-4-Copy" transform="translate(40.250000, 2.500000) rotate(90.000000) translate(-40.250000, -2.500000) " points="41.75 -15.25 40.75 -15.25 40.75 -13.25 42.75 -13.25 42.75 -17.25 38.75 -17.25 38.75 -15.25 37.75 -15.25 37.75 22.25"></polyline>
                        <polyline id="Path-4-Copy" transform="translate(14.500000, 2.500000) scale(-1, 1) rotate(90.000000) translate(-14.500000, -2.500000) " points="16 -4 15 -4 15 -2 17 -2 17 -6 13 -6 13 -4 12 -4 12 11"></polyline>
                        <polyline id="Path-4-Copy" transform="translate(40.250000, 2.500000) rotate(90.000000) translate(-40.250000, -2.500000) " points="41.75 -15.25 40.75 -15.25 40.75 -13.25 42.75 -13.25 42.75 -17.25 38.75 -17.25 38.75 -15.25 37.75 -15.25 37.75 22.25"></polyline>
                        <polyline id="Path-4-Copy" transform="translate(14.500000, 194.500000) scale(-1, -1) rotate(90.000000) translate(-14.500000, -194.500000) " points="16 188 15 188 15 190 17 190 17 186 13 186 13 188 12 188 12 203"></polyline>
                        <polyline id="Path-4-Copy" transform="translate(40.000000, 194.500000) scale(1, -1) rotate(90.000000) translate(-40.000000, -194.500000) " points="41.5 176.5 40.5 176.5 40.5 178.5 42.5 178.5 42.5 174.5 38.5 174.5 38.5 176.5 37.5 176.5 37.5 214.5"></polyline>
                    </g>
                    <g id="Group-10" transform="translate(6.000000, 7.000000)">
                        <polyline id="Path-4" points="4 8 3 8 3 10 5 10 5 6 1 6 1 8 0 8 0 23"></polyline>
                        <polyline id="Path-4" transform="translate(2.500000, 92.750000) scale(1, -1) translate(-2.500000, -92.750000) " points="4 14 3 14 3 16 5 16 5 12 1 12 1 14 0 14 0 173.5"></polyline>
                        <polyline id="Path-4" transform="translate(52.500000, 14.500000) scale(-1, 1) translate(-52.500000, -14.500000) " points="54 8 53 8 53 10 55 10 55 6 51 6 51 8 50 8 50 23"></polyline>
                        <polyline id="Path-4" transform="translate(52.500000, 93.500000) scale(-1, -1) translate(-52.500000, -93.500000) " points="54 15 53 15 53 17 55 17 55 13 51 13 51 15 50 15 50 174"></polyline>
                        <polyline id="Path-4-Copy" transform="translate(14.500000, 2.500000) scale(-1, 1) rotate(90.000000) translate(-14.500000, -2.500000) " points="16 -4 15 -4 15 -2 17 -2 17 -6 13 -6 13 -4 12 -4 12 11"></polyline>
                        <polyline id="Path-4-Copy" transform="translate(34.750000, 2.500000) rotate(90.000000) translate(-34.750000, -2.500000) " points="36.25 -9.75 35.25 -9.75 35.25 -7.75 37.25 -7.75 37.25 -11.75 33.25 -11.75 33.25 -9.75 32.25 -9.75 32.25 16.75"></polyline>
                        <polyline id="Path-4-Copy" transform="translate(14.500000, 2.500000) scale(-1, 1) rotate(90.000000) translate(-14.500000, -2.500000) " points="16 -4 15 -4 15 -2 17 -2 17 -6 13 -6 13 -4 12 -4 12 11"></polyline>
                        <polyline id="Path-4-Copy" transform="translate(34.750000, 2.500000) rotate(90.000000) translate(-34.750000, -2.500000) " points="36.25 -9.75 35.25 -9.75 35.25 -7.75 37.25 -7.75 37.25 -11.75 33.25 -11.75 33.25 -9.75 32.25 -9.75 32.25 16.75"></polyline>
                        <polyline id="Path-4-Copy" transform="translate(14.500000, 177.500000) scale(-1, -1) rotate(90.000000) translate(-14.500000, -177.500000) " points="16 171 15 171 15 173 17 173 17 169 13 169 13 171 12 171 12 186"></polyline>
                        <polyline id="Path-4-Copy" transform="translate(34.500000, 177.500000) scale(1, -1) rotate(90.000000) translate(-34.500000, -177.500000) " points="36 165 35 165 35 167 37 167 37 163 33 163 33 165 32 165 32 192"></polyline>
                    </g>
                </g>
                <path d="M30.4,34.64 L30.4,35.88 L29.32,35.88 L29.32,28.68 C28,29.12 26.58,29.54 25.1,29.9 L24.56,28.88 C28.12,28.1 31.06,27.1 33.38,25.86 C32.46,25.06 31.18,24.2 29.58,23.28 L30.52,22.7 C32.16,23.68 33.4,24.56 34.28,25.34 C36.48,24.02 38.08,22.46 39.08,20.7 L31.28,20.7 C29.94,21.98 28.2,23.12 26.04,24.12 L25.34,23.18 C28.78,21.68 31.1,19.84 32.32,17.68 L33.48,17.82 C33.14,18.46 32.74,19.06 32.26,19.66 L40.32,19.66 L40.32,20.64 C38.76,23.54 35.98,25.88 31.96,27.66 L40.84,27.66 L40.84,35.88 L39.74,35.88 L39.74,34.64 L30.4,34.64 Z M39.74,33.58 L39.74,28.68 L30.4,28.68 L30.4,33.58 L39.74,33.58 Z M25.1,42.86 L41.9,42.86 L41.9,43.92 L35.36,43.92 C34.98,44.8 34.54,45.64 34.06,46.44 L34.06,60 L32.94,60 L32.94,48.08 C31.04,50.6 28.48,52.8 25.26,54.72 L24.54,53.8 C29.2,51.08 32.4,47.78 34.16,43.92 L25.1,43.92 L25.1,42.86 Z M36.56,48.16 C38.9,50.02 40.86,51.88 42.46,53.76 L41.62,54.6 C40.18,52.8 38.24,50.92 35.8,48.92 L36.56,48.16 Z M33.54,67.92 L25.82,67.92 L25.82,66.86 L41.54,66.86 L41.54,67.92 L34.6,67.92 L34.6,74.12 L40.54,74.12 L40.54,75.18 L34.6,75.18 L34.6,81.94 L42.38,81.94 L42.38,83 L24.64,83 L24.64,81.94 L27.9,81.94 L27.9,72.12 L28.98,72.12 L28.98,81.94 L33.54,81.94 L33.54,67.92 Z M24.6,116.46 L42.42,116.46 L42.42,117.48 L24.6,117.48 L24.6,116.46 Z M27.2,119.48 L39.82,119.48 L39.82,120.46 L27.2,120.46 L27.2,119.48 Z M27.2,122.54 L39.82,122.54 L39.82,123.54 L27.2,123.54 L27.2,122.54 Z M40.08,125.74 L40.08,131.98 L39.02,131.98 L39.02,130.92 L27.98,130.92 L27.98,131.98 L26.92,131.98 L26.92,125.74 L40.08,125.74 Z M27.98,129.88 L39.02,129.88 L39.02,126.78 L27.98,126.78 L27.98,129.88 Z M33.34,113.56 C33.78,114.42 34.14,115.2 34.38,115.92 L33.38,116.3 C33.06,115.46 32.66,114.66 32.2,113.88 L33.34,113.56 Z M25.1,138.86 L41.9,138.86 L41.9,139.92 L35.36,139.92 C34.98,140.8 34.54,141.64 34.06,142.44 L34.06,156 L32.94,156 L32.94,144.08 C31.04,146.6 28.48,148.8 25.26,150.72 L24.54,149.8 C29.2,147.08 32.4,143.78 34.16,139.92 L25.1,139.92 L25.1,138.86 Z M36.56,144.16 C38.9,146.02 40.86,147.88 42.46,149.76 L41.62,150.6 C40.18,148.8 38.24,146.92 35.8,144.92 L36.56,144.16 Z M28.18,163.24 L29.18,163.24 L29.18,177.7 L28.18,177.7 L28.18,163.24 Z M31.04,161.98 L32.04,161.98 L32.04,179.6 L31.04,179.6 L31.04,161.98 Z M25.36,161.98 L26.4,161.98 L26.4,171.72 C26.38,175.44 26,178.16 25.24,179.88 L24.4,179.14 C25.02,177.58 25.34,175.12 25.36,171.72 L25.36,161.98 Z M33.06,162.54 L42.48,162.54 L42.48,163.56 L38.26,163.56 C38.16,164.46 38.02,165.32 37.84,166.14 L41.66,166.14 L41.66,175.46 L40.58,175.46 L40.58,167.16 L34.88,167.16 L34.88,175.46 L33.8,175.46 L33.8,166.14 L36.72,166.14 C36.92,165.3 37.06,164.44 37.16,163.56 L33.06,163.56 L33.06,162.54 Z M37.12,168.6 L38.2,168.6 L38.2,172.06 C38.16,174.18 37.78,175.86 37.04,177.12 C36.32,178.28 35.16,179.2 33.54,179.88 L32.92,178.94 C34.46,178.32 35.56,177.46 36.2,176.38 C36.8,175.26 37.1,173.82 37.12,172.06 L37.12,168.6 Z M39.14,175.72 C40.48,176.84 41.6,177.98 42.5,179.12 L41.72,179.9 C40.88,178.82 39.78,177.66 38.4,176.44 L39.14,175.72 Z" id="名不正-言不顺" fill="#333333"></path>
                <circle id="Oval-3" stroke="#FF0000" fill-rule="nonzero" cx="34" cy="100" r="8.5"></circle>
                <circle id="Oval-3" fill="#FF3B52" fill-rule="nonzero" cx="34" cy="100" r="6"></circle>
            </g>
        </g>
    </g>
</svg>