<?xml version="1.0" encoding="UTF-8"?>
<svg width="358px" height="142px" viewBox="0 0 358 142" version="1.1" xmlns="http://www.w3.org/2000/svg" xmlns:xlink="http://www.w3.org/1999/xlink">
    <!-- Generator: Sketch 49.1 (51147) - http://www.bohemiancoding.com/sketch -->
    <title>m_ptys_gxbg</title>
    <desc>Created with Sketch.</desc>
    <defs></defs>
    <g id="Page-1" stroke="none" stroke-width="1" fill="none" fill-rule="evenodd">
        <g id="Artboard-16" transform="translate(-48.000000, -272.000000)" stroke="#CCCCCC">
            <g id="m_ptys_gxbg" transform="translate(48.000000, 273.000000)">
                <polyline id="Path-4" points="10.5 15 9.5 15 9.5 17 11.5 17 11.5 13 7.5 13 7.5 15 6.5 15"></polyline>
                <polyline id="Path-4" transform="translate(9.000000, 69.250000) scale(-1, 1) rotate(-180.000000) translate(-9.000000, -69.250000) " points="10.5 16.5 9.5 16.5 9.5 18.5 11.5 18.5 11.5 14.5 7.5 14.5 7.5 16.5 6.5 16.5 6.5 124"></polyline>
                <polyline id="Path-4" transform="translate(349.500000, 15.000000) scale(-1, 1) translate(-349.500000, -15.000000) " points="351 15 350 15 350 17 352 17 352 13 348 13 348 15 347 15"></polyline>
                <polyline id="Path-4" transform="translate(349.500000, 69.250000) rotate(180.000000) translate(-349.500000, -69.250000) " points="351 16.5 350 16.5 350 18.5 352 18.5 352 14.5 348 14.5 348 16.5 347 16.5 347 124"></polyline>
                <polyline id="Path-4-Copy" transform="translate(14.500000, 9.500000) scale(-1, 1) rotate(90.000000) translate(-14.500000, -9.500000) " points="16 9.5 15 9.5 15 11.5 17 11.5 17 7.5 13 7.5 13 9.5 12 9.5"></polyline>
                <polyline id="Path-4-Copy" transform="translate(180.250000, 9.500000) rotate(90.000000) translate(-180.250000, -9.500000) " points="181.75 -154.75 180.75 -154.75 180.75 -152.75 182.75 -152.75 182.75 -156.75 178.75 -156.75 178.75 -154.75 177.75 -154.75 177.75 175.75"></polyline>
                <polyline id="Path-4-Copy" transform="translate(14.500000, 127.500000) rotate(-90.000000) translate(-14.500000, -127.500000) " points="16 127.5 15 127.5 15 129.5 17 129.5 17 125.5 13 125.5 13 127.5 12 127.5"></polyline>
                <polyline id="Path-4-Copy" transform="translate(180.250000, 127.500000) scale(-1, 1) rotate(-90.000000) translate(-180.250000, -127.500000) " points="181.75 -36.75 180.75 -36.75 180.75 -34.75 182.75 -34.75 182.75 -38.75 178.75 -38.75 178.75 -36.75 177.75 -36.75 177.75 293.75"></polyline>
                <polyline id="Path-4" points="4.5 8 3.5 8 3.5 10 5.5 10 5.5 6 1.5 6 1.5 8 0.5 8"></polyline>
                <polyline id="Path-4" transform="translate(3.000000, 70.750000) scale(-1, 1) rotate(-180.000000) translate(-3.000000, -70.750000) " points="4.5 9.5 3.5 9.5 3.5 11.5 5.5 11.5 5.5 7.5 1.5 7.5 1.5 9.5 0.5 9.5 0.5 134"></polyline>
                <polyline id="Path-4" transform="translate(354.500000, 8.000000) scale(-1, 1) translate(-354.500000, -8.000000) " points="356 8 355 8 355 10 357 10 357 6 353 6 353 8 352 8"></polyline>
                <polyline id="Path-4" transform="translate(354.500000, 70.750000) rotate(180.000000) translate(-354.500000, -70.750000) " points="356 9.5 355 9.5 355 11.5 357 11.5 357 7.5 353 7.5 353 9.5 352 9.5 352 134"></polyline>
                <polyline id="Path-4-Copy" transform="translate(8.500000, 2.500000) scale(-1, 1) rotate(90.000000) translate(-8.500000, -2.500000) " points="10 2.5 9 2.5 9 4.5 11 4.5 11 0.5 7 0.5 7 2.5 6 2.5"></polyline>
                <polyline id="Path-4-Copy" transform="translate(179.750000, 2.500000) rotate(90.000000) translate(-179.750000, -2.500000) " points="181.25 -167.25 180.25 -167.25 180.25 -165.25 182.25 -165.25 182.25 -169.25 178.25 -169.25 178.25 -167.25 177.25 -167.25 177.25 174.25"></polyline>
                <polyline id="Path-4-Copy" transform="translate(8.500000, 137.500000) rotate(-90.000000) translate(-8.500000, -137.500000) " points="10 137.5 9 137.5 9 139.5 11 139.5 11 135.5 7 135.5 7 137.5 6 137.5"></polyline>
                <polyline id="Path-4-Copy" transform="translate(179.750000, 137.500000) scale(-1, 1) rotate(-90.000000) translate(-179.750000, -137.500000) " points="181.25 -32.25 180.25 -32.25 180.25 -30.25 182.25 -30.25 182.25 -34.25 178.25 -34.25 178.25 -32.25 177.25 -32.25 177.25 309.25"></polyline>
            </g>
        </g>
    </g>
</svg>