<?xml version="1.0" encoding="UTF-8"?>
<svg width="25px" height="23px" viewBox="0 0 25 23" version="1.1" xmlns="http://www.w3.org/2000/svg" xmlns:xlink="http://www.w3.org/1999/xlink">
    <!-- Generator: Sketch 49.1 (51147) - http://www.bohemiancoding.com/sketch -->
    <title>m_wechat_icon</title>
    <desc>Created with Sketch.</desc>
    <defs></defs>
    <g id="Page-1" stroke="none" stroke-width="1" fill="none" fill-rule="evenodd">
        <g id="Artboard-6" transform="translate(-33.000000, -409.000000)" fill="#07D030" fill-rule="nonzero">
            <g id="Group-20" transform="translate(21.000000, 47.000000)">
                <g id="Group-13">
                    <g id="Group-40">
                        <g id="Group-38" transform="translate(12.000000, 362.000000)">
                            <g id="wechat_icon">
                                <path d="M9.5307156,14.4829164 C8.03438897,15.3142185 7.81245506,14.0162199 7.81245506,14.0162199 L5.93713071,9.6552463 C5.21555632,7.58296514 6.56163441,8.72088377 6.56163441,8.72088377 C6.56163441,8.72088377 7.71663488,9.5916272 8.59320974,10.1222243 C9.46931566,10.6528213 10.4679401,10.2779878 10.4679401,10.2779878 L22.7279207,4.63875199 C20.4660018,1.8339754 16.7295151,0 12.4993591,0 C5.59580455,0 0,4.88062343 0,10.9015113 C0,14.3646862 1.85294026,17.4470222 4.73911276,19.4447996 L4.21862006,22.426421 C4.21862006,22.426421 3.96489199,23.296883 4.84424923,22.8931488 C5.44346141,22.6178726 6.97105074,21.6314325 7.88038891,21.0310859 C9.30993841,21.5275276 10.8673836,21.803179 12.5000469,21.803179 C19.4030387,21.803179 25,16.9225556 25,10.9015426 C25,9.1575848 24.5283709,7.51061953 23.6929378,6.04872516 C19.7868822,8.39074631 10.7015663,13.8335261 9.5307156,14.4829164 Z" id="m_wechat_icon"></path>
                            </g>
                        </g>
                    </g>
                </g>
            </g>
        </g>
    </g>
</svg>