<?xml version="1.0" encoding="UTF-8"?>
<svg width="25px" height="25px" viewBox="0 0 25 25" version="1.1" xmlns="http://www.w3.org/2000/svg" xmlns:xlink="http://www.w3.org/1999/xlink">
    <!-- Generator: Sketch 49.1 (51147) - http://www.bohemiancoding.com/sketch -->
    <title>m_zfb_icon</title>
    <desc>Created with Sketch.</desc>
    <defs></defs>
    <g id="Page-1" stroke="none" stroke-width="1" fill="none" fill-rule="evenodd">
        <g id="Artboard-6" transform="translate(-33.000000, -456.000000)" fill="#149EF4" fill-rule="nonzero">
            <g id="Group-20" transform="translate(21.000000, 47.000000)">
                <g id="Group-13">
                    <g id="Group-40">
                        <g id="Group-37" transform="translate(12.000000, 409.000000)">
                            <g id="zfb_icon">
                                <path d="M25,17.115 L25,4.80625 C24.9986202,2.1519151 22.8469428,0.000689616711 20.1927404,0 L4.8060097,0 C2.15229536,0.00137933865 0.00137926969,2.15240297 0,4.80625 L0,20.19375 C0.000689977941,22.8478827 2.15200969,24.99931 4.8060097,25 L20.1927404,25 C22.519397,24.9983365 24.511645,23.3322582 24.9250037,21.0425 C23.6500675,20.49 18.1253437,18.105 15.2467377,16.73 C13.0568472,19.38375 10.7619619,20.97625 7.30463477,20.97625 C3.84730763,20.97625 1.53867307,18.84625 1.81615919,16.23875 C1.99865007,14.52875 3.17234138,11.7325 8.26833658,12.21125 C10.9557022,12.46375 12.1843908,12.965 14.3755312,13.68875 C14.9417529,12.64875 15.4129794,11.505 15.7704615,10.28875 L6.0559472,10.28875 L6.0559472,9.32625 L10.8632068,9.32625 L10.8632068,7.59625 L4.99975001,7.59625 L4.99975001,6.5375 L10.8619569,6.5375 L10.8619569,4.04375 C10.8619569,4.04375 10.9144543,3.65375 11.3456827,3.65375 L13.7493125,3.65375 L13.7493125,6.5375 L19.999,6.5375 L19.999,7.5975 L13.7493125,7.5975 L13.7493125,9.325 L18.8478076,9.325 C18.4080484,11.1455861 17.7106298,12.8940603 16.7766612,14.5175 C18.2578371,15.055 24.9987501,17.115 24.9987501,17.115 L25,17.115 Z M6.92215389,19.32625 C3.26858657,19.32625 2.69111544,17.02 2.88485576,16.05625 C3.0760962,15.09625 4.13479326,13.84375 6.1659417,13.84375 C8.49957502,13.84375 10.5907205,14.44125 13.100595,15.66375 C11.3381831,17.95875 9.1720414,19.32625 6.92215389,19.32625 Z" id="m_zfb_icon"></path>
                            </g>
                        </g>
                    </g>
                </g>
            </g>
        </g>
    </g>
</svg>