<?xml version="1.0" encoding="UTF-8"?>
<svg width="209px" height="60px" viewBox="0 0 209 60" version="1.1" xmlns="http://www.w3.org/2000/svg" xmlns:xlink="http://www.w3.org/1999/xlink">
    <!-- Generator: Sketch 49.1 (51147) - http://www.bohemiancoding.com/sketch -->
    <title>mulu_2_active</title>
    <desc>Created with Sketch.</desc>
    <defs>
        <linearGradient x1="0%" y1="0%" x2="86.6067656%" y2="100%" id="linearGradient-1">
            <stop stop-color="#FFC613" offset="0%"></stop>
            <stop stop-color="#FF8320" offset="100%"></stop>
        </linearGradient>
        <linearGradient x1="50%" y1="0%" x2="50%" y2="100%" id="linearGradient-2">
            <stop stop-color="#FFFFFF" offset="0%"></stop>
            <stop stop-color="#FFFFFF" stop-opacity="0" offset="100%"></stop>
        </linearGradient>
    </defs>
    <g id="Page-1" stroke="none" stroke-width="1" fill="none" fill-rule="evenodd">
        <g id="Artboard-12" transform="translate(-212.000000, -165.000000)">
            <g id="mulu_2_active" transform="translate(212.000000, 165.000000)">
                <rect id="Rectangle-13" fill="url(#linearGradient-1)" x="0" y="0" width="209" height="60" rx="6"></rect>
                <path d="M62,15.168 C61.36,16.608 60.56,17.808 59.584,18.768 L58.592,17.504 C60.032,15.984 61.008,13.936 61.52,11.36 L63.072,11.632 C62.912,12.368 62.736,13.056 62.544,13.696 L65.52,13.696 L65.52,11.008 L67.04,11.008 L67.04,13.696 L72.176,13.696 L72.176,15.168 L67.04,15.168 L67.04,18.48 L71.856,18.48 L71.856,19.952 L67.04,19.952 L67.04,23.6 L73.2,23.6 L73.2,25.104 L59.008,25.104 L59.008,23.6 L65.52,23.6 L65.52,19.952 L60.944,19.952 L60.944,18.48 L65.52,18.48 L65.52,15.168 L62,15.168 Z M85.2480003,25.552 L83.3920003,25.552 L82.9920003,24.064 L84.7360003,24.112 C85.2480003,24.112 85.5040003,23.888 85.5040003,23.44 L85.5040003,22.24 L77.1680003,22.24 L77.1680003,25.664 L75.6960003,25.664 L75.6960003,15.184 L80.6720003,15.184 L80.6720003,10.88 L82.1760003,10.88 L82.1760003,15.184 L86.9760003,15.184 L86.9760003,23.76 C86.9760003,24.944 86.4000003,25.552 85.2480003,25.552 Z M77.1680003,20.864 L85.5040003,20.864 L85.5040003,19.472 L77.1680003,19.472 L77.1680003,20.864 Z M77.1680003,18.096 L85.5040003,18.096 L85.5040003,16.608 L77.1680003,16.608 L77.1680003,18.096 Z M76.9760003,11.152 C77.6800003,12.048 78.3360003,13.008 78.9760003,14.064 L77.6480003,14.736 C77.0080003,13.648 76.3360003,12.672 75.6320003,11.808 L76.9760003,11.152 Z M86.0320003,11.072 L87.3760003,11.712 C86.8320003,12.768 86.1280003,13.792 85.2800003,14.784 L83.9840003,14.112 C84.8480003,13.088 85.5200003,12.08 86.0320003,11.072 Z M93.4720005,16.992 L97.2160005,16.992 L97.2160005,16.384 C95.9360005,16.416 94.5760005,16.448 93.1360005,16.448 L92.7520005,15.328 C96.5600005,15.328 99.7760005,15.184 102.400001,14.928 L103.024001,16.016 C101.760001,16.16 100.304001,16.272 98.6560005,16.336 L98.6560005,16.992 L102.464001,16.992 L102.464001,19.968 L98.6560005,19.968 L98.6560005,20.656 L103.552001,20.656 L103.552001,24.08 C103.552001,25.088 103.072001,25.6 102.112001,25.6 L100.464001,25.6 L100.128001,24.336 L100.544001,24.352 C100.480001,24.16 100.416001,23.968 100.352001,23.808 C98.7040005,24.048 96.9600005,24.256 95.1360005,24.448 L94.8320005,23.2 C95.6480005,23.136 96.4480005,23.088 97.2160005,23.024 L97.2160005,21.872 L94.0960005,21.872 L94.0960005,25.648 L92.7040005,25.648 L92.7040005,20.656 L97.2160005,20.656 L97.2160005,19.968 L93.4720005,19.968 L93.4720005,16.992 Z M98.5600005,21.872 L98.5600005,22.912 L99.9680005,22.752 C99.8400005,22.432 99.7120005,22.128 99.5840005,21.872 L98.5600005,21.872 Z M101.104001,18.912 L101.104001,18.096 L98.6560005,18.096 L98.6560005,18.912 L101.104001,18.912 Z M97.2160005,18.912 L97.2160005,18.096 L94.8480005,18.096 L94.8480005,18.912 L97.2160005,18.912 Z M100.704001,24.352 L101.696001,24.384 C102.016001,24.384 102.192001,24.176 102.192001,23.792 L102.192001,21.872 L100.736001,21.872 C101.056001,22.544 101.344001,23.248 101.600001,23.968 L100.704001,24.352 Z M101.792001,12.608 L92.3200005,12.608 L92.3200005,13.504 L101.792001,13.504 L101.792001,12.608 Z M92.3200005,14.624 L92.3200005,16.224 C92.3040005,19.792 91.6800005,22.848 90.4640005,25.392 L89.3280005,24.368 C90.3200005,22.272 90.8320005,19.552 90.8480005,16.224 L90.8480005,11.408 L103.232001,11.408 L103.232001,14.624 L92.3200005,14.624 Z M105.136001,14.016 L106.320001,14.096 C106.288001,15.696 106.112001,17.232 105.808001,18.672 L104.576001,18.32 C104.896001,16.96 105.088001,15.52 105.136001,14.016 Z M109.488001,13.632 C109.760001,14.288 110.016001,15.008 110.240001,15.808 C110.656001,14.592 110.912001,13.296 110.976001,11.936 L112.368001,12.128 C112.336001,12.704 112.288001,13.264 112.224001,13.808 L114.112001,13.808 L114.112001,10.944 L115.648001,10.944 L115.648001,13.808 L119.008001,13.808 L119.008001,15.264 L115.648001,15.264 L115.648001,18.816 L118.832001,18.816 L118.832001,20.304 L115.648001,20.304 L115.648001,23.728 L119.424001,23.728 L119.424001,25.2 L109.664001,25.2 L109.664001,23.728 L114.112001,23.728 L114.112001,20.304 L110.528001,20.304 L110.528001,18.816 L114.112001,18.816 L114.112001,15.264 L111.936001,15.264 C111.648001,16.368 111.248001,17.392 110.704001,18.352 L109.584001,17.36 C109.712001,17.104 109.824001,16.864 109.920001,16.64 L109.232001,16.816 C109.008001,15.824 108.736001,14.88 108.384001,13.984 L109.488001,13.632 Z M106.816001,10.928 L108.336001,10.928 L108.336001,25.584 L106.816001,25.584 L106.816001,10.928 Z M129.296001,15.072 L125.728001,15.072 L125.728001,13.648 L127.984001,13.648 C127.536001,12.832 127.072001,12.112 126.592001,11.472 L127.856001,10.864 C128.352001,11.568 128.832001,12.352 129.296001,13.184 L128.384001,13.648 L130.784001,13.648 C131.232001,12.752 131.648001,11.808 132.000001,10.816 L133.440001,11.312 C133.088001,12.192 132.704001,12.976 132.288001,13.648 L134.384001,13.648 L134.384001,15.072 L130.816001,15.072 L130.816001,17.072 L133.904001,17.072 L133.904001,18.496 L130.816001,18.496 L130.816001,20.576 L134.800001,20.576 L134.800001,22.016 L130.816001,22.016 L130.816001,25.664 L129.296001,25.664 L129.296001,22.016 L125.328001,22.016 L125.328001,20.576 L129.296001,20.576 L129.296001,18.496 L126.208001,18.496 L126.208001,17.072 L129.296001,17.072 L129.296001,15.072 Z M122.208001,11.04 C123.232001,11.808 124.096001,12.592 124.800001,13.376 L123.776001,14.416 C123.152001,13.68 122.272001,12.88 121.152001,12.032 L122.208001,11.04 Z M120.048001,15.648 L123.664001,15.648 L123.664001,22.16 C123.984001,21.808 124.336001,21.424 124.688001,21.008 L125.072001,22.528 C124.208001,23.504 123.312001,24.384 122.352001,25.168 L121.792001,23.84 C122.048001,23.6 122.192001,23.312 122.192001,22.976 L122.192001,17.104 L120.048001,17.104 L120.048001,15.648 Z M144.384001,19.68 C144.128001,20.192 143.808001,20.624 143.456001,21.008 L142.576001,19.936 C143.248001,19.2 143.712001,18.224 143.936001,17.008 L145.184001,17.232 C145.104001,17.616 145.024001,17.984 144.928001,18.32 L146.096001,18.32 L146.096001,16.944 L147.584001,16.944 L147.584001,18.32 L149.776001,18.32 L149.776001,19.68 L147.584001,19.68 L147.584001,21.296 L150.112001,21.296 L150.112001,22.688 L147.584001,22.688 L147.584001,25.696 L146.096001,25.696 L146.096001,22.688 L142.688001,22.688 L142.688001,21.296 L146.096001,21.296 L146.096001,19.68 L144.384001,19.68 Z M144.768001,13.072 L142.784001,13.072 L142.784001,11.728 L149.680001,11.728 C149.664001,14 149.504001,15.36 149.200001,15.808 C148.896001,16.256 148.368001,16.48 147.632001,16.48 C147.248001,16.48 146.800001,16.448 146.272001,16.416 L145.920001,15.168 C146.480001,15.2 146.944001,15.232 147.312001,15.264 C147.696001,15.248 147.952001,15.12 148.048001,14.896 C148.144001,14.672 148.192001,14.064 148.224001,13.072 L146.192001,13.072 C146.032001,13.76 145.792001,14.368 145.504001,14.912 C145.072001,15.6 144.448001,16.224 143.632001,16.784 L142.736001,15.648 C143.408001,15.264 143.920001,14.816 144.256001,14.288 C144.480001,13.936 144.640001,13.536 144.768001,13.072 Z M137.584001,18.832 L137.584001,20.64 L138.704001,20.64 L138.704001,18.832 L137.584001,18.832 Z M137.504001,21.904 C137.360001,23.44 137.008001,24.72 136.432001,25.776 L135.408001,24.832 C135.984001,23.696 136.272001,22.256 136.288001,20.496 L136.288001,15.728 L135.472001,14.736 C136.368001,13.792 137.136001,12.48 137.776001,10.816 L139.152001,11.136 C139.040001,11.424 138.928001,11.712 138.816001,11.984 L141.536001,11.984 L141.536001,13.024 C141.232001,13.616 140.928001,14.144 140.624001,14.592 L142.336001,14.592 L142.336001,24.272 C142.336001,25.104 141.888001,25.52 141.008001,25.52 L140.224001,25.52 L139.904001,24.384 L139.904001,25.376 L138.704001,25.376 L138.704001,21.904 L137.504001,21.904 Z M139.088001,14.592 C139.360001,14.192 139.632001,13.728 139.920001,13.216 L138.224001,13.216 C137.968001,13.712 137.696001,14.176 137.408001,14.592 L139.088001,14.592 Z M139.904001,24.272 C140.144001,24.304 140.368001,24.336 140.576001,24.336 C140.896001,24.336 141.056001,24.16 141.056001,23.824 L141.056001,21.904 L139.904001,21.904 L139.904001,24.272 Z M141.056001,20.64 L141.056001,18.832 L139.904001,18.832 L139.904001,20.64 L141.056001,20.64 Z M141.056001,17.584 L141.056001,15.888 L139.904001,15.888 L139.904001,17.584 L141.056001,17.584 Z M138.704001,15.888 L137.584001,15.888 L137.584001,17.584 L138.704001,17.584 L138.704001,15.888 Z" id="生肖属性详解" fill="url(#linearGradient-2)"></path>
            </g>
        </g>
    </g>
</svg>