<?xml version="1.0" encoding="UTF-8"?>
<svg width="209px" height="60px" viewBox="0 0 209 60" version="1.1" xmlns="http://www.w3.org/2000/svg" xmlns:xlink="http://www.w3.org/1999/xlink">
    <!-- Generator: Sketch 49.1 (51147) - http://www.bohemiancoding.com/sketch -->
    <title>mulu_3_active</title>
    <desc>Created with Sketch.</desc>
    <defs>
        <linearGradient x1="0%" y1="0%" x2="86.6067656%" y2="100%" id="linearGradient-1">
            <stop stop-color="#FFC613" offset="0%"></stop>
            <stop stop-color="#FF8320" offset="100%"></stop>
        </linearGradient>
        <linearGradient x1="50%" y1="0%" x2="50%" y2="100%" id="linearGradient-2">
            <stop stop-color="#FFFFFF" offset="0%"></stop>
            <stop stop-color="#FFFFFF" stop-opacity="0" offset="100%"></stop>
        </linearGradient>
    </defs>
    <g id="Page-1" stroke="none" stroke-width="1" fill="none" fill-rule="evenodd">
        <g id="Artboard-12" transform="translate(-212.000000, -236.000000)">
            <g id="mulu_3_active" transform="translate(212.000000, 236.000000)">
                <rect id="Rectangle-13" fill="url(#linearGradient-1)" x="0" y="0" width="209" height="60" rx="6"></rect>
                <path d="M77.712,20.08 C77.216,21.104 76.672,22 76.064,22.736 L75.072,21.552 C75.936,20.56 76.672,19.2 77.28,17.456 L78.656,17.76 L78.304,18.736 L81.856,18.736 L81.856,17.648 L83.392,17.648 L83.392,18.736 L88.544,18.736 L88.544,20.08 L83.392,20.08 L83.392,21.36 L87.952,21.36 L87.952,22.64 L83.392,22.64 L83.392,23.92 L89.264,23.92 L89.264,25.296 L75.648,25.296 L75.648,23.92 L81.856,23.92 L81.856,22.64 L77.552,22.64 L77.552,21.36 L81.856,21.36 L81.856,20.08 L77.712,20.08 Z M77.024,11.328 L87.6,11.328 L87.6,17.216 L77.024,17.216 L77.024,11.328 Z M86.096,15.936 L86.096,14.88 L78.528,14.88 L78.528,15.936 L86.096,15.936 Z M78.528,13.664 L86.096,13.664 L86.096,12.624 L78.528,12.624 L78.528,13.664 Z M93.6160003,20.608 L97.7600003,20.608 L97.7600003,14.08 L99.2480003,14.08 L99.2480003,20.608 L103.712,20.608 L103.712,22.016 L99.2480003,22.016 L99.2480003,23.872 L104.512,23.872 L104.512,25.328 L92.7200003,25.328 L92.7200003,23.872 L97.7600003,23.872 L97.7600003,22.016 L93.6160003,22.016 L93.6160003,20.608 Z M101.84,17.648 C101.44,18.64 100.944,19.472 100.368,20.16 L99.4400003,19.008 C100.368,17.824 101.008,16.24 101.344,14.256 L102.704,14.496 C102.576,15.232 102.416,15.904 102.224,16.528 C102.928,17.216 103.648,17.984 104.384,18.832 L103.552,20.112 C102.864,19.04 102.288,18.224 101.84,17.648 Z M95.3920003,17.856 C94.9760003,18.784 94.4800003,19.584 93.9040003,20.24 L92.9760003,19.072 C93.9520003,17.888 94.6080003,16.288 94.9600003,14.272 L96.3680003,14.528 C96.2080003,15.312 96.0320003,16.032 95.8240003,16.704 C96.4320003,17.28 96.9920003,17.952 97.5040003,18.688 L96.6560003,20 C96.2400003,19.152 95.8080003,18.432 95.3920003,17.856 Z M104.368,12.128 L104.368,13.584 L92.7840003,13.584 L92.7840003,17.216 C92.7200003,20.704 92.1440003,23.504 91.0240003,25.616 L89.8880003,24.608 C90.7680003,22.832 91.2320003,20.368 91.2800003,17.216 L91.2800003,12.128 L97.0880003,12.128 C96.9280003,11.712 96.7360003,11.328 96.5280003,10.976 L98.1280003,10.72 C98.3040003,11.152 98.4800003,11.616 98.6560003,12.128 L104.368,12.128 Z M114.576001,15.072 L111.008001,15.072 L111.008001,13.648 L113.264001,13.648 C112.816001,12.832 112.352001,12.112 111.872001,11.472 L113.136001,10.864 C113.632001,11.568 114.112001,12.352 114.576001,13.184 L113.664001,13.648 L116.064001,13.648 C116.512001,12.752 116.928001,11.808 117.280001,10.816 L118.720001,11.312 C118.368001,12.192 117.984001,12.976 117.568001,13.648 L119.664001,13.648 L119.664001,15.072 L116.096001,15.072 L116.096001,17.072 L119.184001,17.072 L119.184001,18.496 L116.096001,18.496 L116.096001,20.576 L120.080001,20.576 L120.080001,22.016 L116.096001,22.016 L116.096001,25.664 L114.576001,25.664 L114.576001,22.016 L110.608001,22.016 L110.608001,20.576 L114.576001,20.576 L114.576001,18.496 L111.488001,18.496 L111.488001,17.072 L114.576001,17.072 L114.576001,15.072 Z M107.488001,11.04 C108.512001,11.808 109.376001,12.592 110.080001,13.376 L109.056001,14.416 C108.432001,13.68 107.552001,12.88 106.432001,12.032 L107.488001,11.04 Z M105.328001,15.648 L108.944001,15.648 L108.944001,22.16 C109.264001,21.808 109.616001,21.424 109.968001,21.008 L110.352001,22.528 C109.488001,23.504 108.592001,24.384 107.632001,25.168 L107.072001,23.84 C107.328001,23.6 107.472001,23.312 107.472001,22.976 L107.472001,17.104 L105.328001,17.104 L105.328001,15.648 Z M129.664001,19.68 C129.408001,20.192 129.088001,20.624 128.736001,21.008 L127.856001,19.936 C128.528001,19.2 128.992001,18.224 129.216001,17.008 L130.464001,17.232 C130.384001,17.616 130.304001,17.984 130.208001,18.32 L131.376001,18.32 L131.376001,16.944 L132.864001,16.944 L132.864001,18.32 L135.056001,18.32 L135.056001,19.68 L132.864001,19.68 L132.864001,21.296 L135.392001,21.296 L135.392001,22.688 L132.864001,22.688 L132.864001,25.696 L131.376001,25.696 L131.376001,22.688 L127.968001,22.688 L127.968001,21.296 L131.376001,21.296 L131.376001,19.68 L129.664001,19.68 Z M130.048001,13.072 L128.064001,13.072 L128.064001,11.728 L134.960001,11.728 C134.944001,14 134.784001,15.36 134.480001,15.808 C134.176001,16.256 133.648001,16.48 132.912001,16.48 C132.528001,16.48 132.080001,16.448 131.552001,16.416 L131.200001,15.168 C131.760001,15.2 132.224001,15.232 132.592001,15.264 C132.976001,15.248 133.232001,15.12 133.328001,14.896 C133.424001,14.672 133.472001,14.064 133.504001,13.072 L131.472001,13.072 C131.312001,13.76 131.072001,14.368 130.784001,14.912 C130.352001,15.6 129.728001,16.224 128.912001,16.784 L128.016001,15.648 C128.688001,15.264 129.200001,14.816 129.536001,14.288 C129.760001,13.936 129.920001,13.536 130.048001,13.072 Z M122.864001,18.832 L122.864001,20.64 L123.984001,20.64 L123.984001,18.832 L122.864001,18.832 Z M122.784001,21.904 C122.640001,23.44 122.288001,24.72 121.712001,25.776 L120.688001,24.832 C121.264001,23.696 121.552001,22.256 121.568001,20.496 L121.568001,15.728 L120.752001,14.736 C121.648001,13.792 122.416001,12.48 123.056001,10.816 L124.432001,11.136 C124.320001,11.424 124.208001,11.712 124.096001,11.984 L126.816001,11.984 L126.816001,13.024 C126.512001,13.616 126.208001,14.144 125.904001,14.592 L127.616001,14.592 L127.616001,24.272 C127.616001,25.104 127.168001,25.52 126.288001,25.52 L125.504001,25.52 L125.184001,24.384 L125.184001,25.376 L123.984001,25.376 L123.984001,21.904 L122.784001,21.904 Z M124.368001,14.592 C124.640001,14.192 124.912001,13.728 125.200001,13.216 L123.504001,13.216 C123.248001,13.712 122.976001,14.176 122.688001,14.592 L124.368001,14.592 Z M125.184001,24.272 C125.424001,24.304 125.648001,24.336 125.856001,24.336 C126.176001,24.336 126.336001,24.16 126.336001,23.824 L126.336001,21.904 L125.184001,21.904 L125.184001,24.272 Z M126.336001,20.64 L126.336001,18.832 L125.184001,18.832 L125.184001,20.64 L126.336001,20.64 Z M126.336001,17.584 L126.336001,15.888 L125.184001,15.888 L125.184001,17.584 L126.336001,17.584 Z M123.984001,15.888 L122.864001,15.888 L122.864001,17.584 L123.984001,17.584 L123.984001,15.888 Z" id="星座详解" fill="url(#linearGradient-2)"></path>
            </g>
        </g>
    </g>
</svg>