<?xml version="1.0" encoding="UTF-8"?>
<svg width="209px" height="60px" viewBox="0 0 209 60" version="1.1" xmlns="http://www.w3.org/2000/svg" xmlns:xlink="http://www.w3.org/1999/xlink">
    <!-- Generator: Sketch 49.1 (51147) - http://www.bohemiancoding.com/sketch -->
    <title>mulu_6_active</title>
    <desc>Created with Sketch.</desc>
    <defs>
        <linearGradient x1="0%" y1="0%" x2="86.6067656%" y2="100%" id="linearGradient-1">
            <stop stop-color="#FFC613" offset="0%"></stop>
            <stop stop-color="#FF8320" offset="100%"></stop>
        </linearGradient>
        <linearGradient x1="50%" y1="0%" x2="50%" y2="100%" id="linearGradient-2">
            <stop stop-color="#FFFFFF" offset="0%"></stop>
            <stop stop-color="#FFFFFF" stop-opacity="0" offset="100%"></stop>
        </linearGradient>
    </defs>
    <g id="Page-1" stroke="none" stroke-width="1" fill="none" fill-rule="evenodd">
        <g id="Artboard-12" transform="translate(-212.000000, -460.000000)">
            <g id="mulu_6_active" transform="translate(212.000000, 460.000000)">
                <rect id="Rectangle-13" fill="url(#linearGradient-1)" x="0" y="0" width="209" height="60" rx="6"></rect>
                <path d="M77.168,18.352 L77.168,25.648 L75.648,25.648 L75.648,25.008 L68.416,25.008 L68.416,25.648 L66.896,25.648 L66.896,18.352 L77.168,18.352 Z M68.416,23.696 L75.648,23.696 L75.648,22.352 L68.416,22.352 L68.416,23.696 Z M68.416,21.056 L75.648,21.056 L75.648,19.68 L68.416,19.68 L68.416,21.056 Z M65.648,12.32 L71.264,12.32 C71.04,11.84 70.816,11.392 70.56,10.976 L72.192,10.72 C72.416,11.2 72.624,11.728 72.832,12.32 L78.368,12.32 L78.368,13.728 L75.904,13.728 C75.696,14.496 75.408,15.232 75.056,15.936 L79.104,15.936 L79.104,17.344 L64.896,17.344 L64.896,15.936 L68.864,15.936 C68.624,15.136 68.368,14.4 68.112,13.728 L65.648,13.728 L65.648,12.32 Z M69.696,13.728 C69.92,14.4 70.144,15.136 70.352,15.936 L73.568,15.936 C73.92,15.232 74.208,14.496 74.4,13.728 L69.696,13.728 Z M80.3040003,11.408 L88.3840003,11.408 L88.3840003,12.832 L86.9120003,12.832 L86.9120003,17.056 L88.6240003,17.056 L88.6240003,18.528 L86.9120003,18.528 L86.9120003,25.536 L85.3600003,25.536 L85.3600003,18.528 L83.3280003,18.528 C83.1840003,21.696 82.4640003,24.048 81.1840003,25.568 L80.0480003,24.576 C81.0880003,23.264 81.6640003,21.248 81.7920003,18.528 L80.0160003,18.528 L80.0160003,17.056 L81.8240003,17.056 L81.8240003,12.832 L80.3040003,12.832 L80.3040003,11.408 Z M83.3600003,12.832 L83.3600003,17.056 L85.3600003,17.056 L85.3600003,12.832 L83.3600003,12.832 Z M92.8320003,10.928 L93.8240003,12.08 C92.5120003,13.392 90.9120003,14.48 89.0080003,15.344 L88.3680003,13.952 C90.1760003,13.184 91.6640003,12.176 92.8320003,10.928 Z M93.5360003,15.2 L94.5280003,16.352 C93.2160003,17.776 91.6000003,18.96 89.6800003,19.888 L89.0400003,18.512 C90.8640003,17.68 92.3520003,16.576 93.5360003,15.2 Z M93.9200003,19.632 L94.9280003,20.784 C93.2960003,22.736 91.2800003,24.336 88.9120003,25.616 L88.2560003,24.208 C90.5600003,23.056 92.4480003,21.52 93.9200003,19.632 Z M101.712001,10.864 C102.672001,12 103.520001,13.248 104.256001,14.608 L102.864001,15.312 C102.096001,13.888 101.232001,12.624 100.288001,11.504 L101.712001,10.864 Z M106.832001,11.648 L108.336001,11.984 C107.632001,15.664 106.192001,18.656 104.032001,20.976 C105.744001,22.32 107.744001,23.392 110.016001,24.176 L109.072001,25.584 C106.720001,24.72 104.656001,23.552 102.880001,22.08 C101.088001,23.616 98.9280005,24.816 96.3840005,25.648 L95.5200005,24.256 C97.9360005,23.488 99.9840005,22.384 101.648001,20.976 C99.6480005,19.024 98.0480005,16.656 96.8640005,13.84 L98.2560005,13.04 C99.3280005,15.776 100.832001,18.064 102.784001,19.904 C104.832001,17.76 106.176001,15.008 106.832001,11.648 Z M119.936001,15.072 L116.368001,15.072 L116.368001,13.648 L118.624001,13.648 C118.176001,12.832 117.712001,12.112 117.232001,11.472 L118.496001,10.864 C118.992001,11.568 119.472001,12.352 119.936001,13.184 L119.024001,13.648 L121.424001,13.648 C121.872001,12.752 122.288001,11.808 122.640001,10.816 L124.080001,11.312 C123.728001,12.192 123.344001,12.976 122.928001,13.648 L125.024001,13.648 L125.024001,15.072 L121.456001,15.072 L121.456001,17.072 L124.544001,17.072 L124.544001,18.496 L121.456001,18.496 L121.456001,20.576 L125.440001,20.576 L125.440001,22.016 L121.456001,22.016 L121.456001,25.664 L119.936001,25.664 L119.936001,22.016 L115.968001,22.016 L115.968001,20.576 L119.936001,20.576 L119.936001,18.496 L116.848001,18.496 L116.848001,17.072 L119.936001,17.072 L119.936001,15.072 Z M112.848001,11.04 C113.872001,11.808 114.736001,12.592 115.440001,13.376 L114.416001,14.416 C113.792001,13.68 112.912001,12.88 111.792001,12.032 L112.848001,11.04 Z M110.688001,15.648 L114.304001,15.648 L114.304001,22.16 C114.624001,21.808 114.976001,21.424 115.328001,21.008 L115.712001,22.528 C114.848001,23.504 113.952001,24.384 112.992001,25.168 L112.432001,23.84 C112.688001,23.6 112.832001,23.312 112.832001,22.976 L112.832001,17.104 L110.688001,17.104 L110.688001,15.648 Z M135.024001,19.68 C134.768001,20.192 134.448001,20.624 134.096001,21.008 L133.216001,19.936 C133.888001,19.2 134.352001,18.224 134.576001,17.008 L135.824001,17.232 C135.744001,17.616 135.664001,17.984 135.568001,18.32 L136.736001,18.32 L136.736001,16.944 L138.224001,16.944 L138.224001,18.32 L140.416001,18.32 L140.416001,19.68 L138.224001,19.68 L138.224001,21.296 L140.752001,21.296 L140.752001,22.688 L138.224001,22.688 L138.224001,25.696 L136.736001,25.696 L136.736001,22.688 L133.328001,22.688 L133.328001,21.296 L136.736001,21.296 L136.736001,19.68 L135.024001,19.68 Z M135.408001,13.072 L133.424001,13.072 L133.424001,11.728 L140.320001,11.728 C140.304001,14 140.144001,15.36 139.840001,15.808 C139.536001,16.256 139.008001,16.48 138.272001,16.48 C137.888001,16.48 137.440001,16.448 136.912001,16.416 L136.560001,15.168 C137.120001,15.2 137.584001,15.232 137.952001,15.264 C138.336001,15.248 138.592001,15.12 138.688001,14.896 C138.784001,14.672 138.832001,14.064 138.864001,13.072 L136.832001,13.072 C136.672001,13.76 136.432001,14.368 136.144001,14.912 C135.712001,15.6 135.088001,16.224 134.272001,16.784 L133.376001,15.648 C134.048001,15.264 134.560001,14.816 134.896001,14.288 C135.120001,13.936 135.280001,13.536 135.408001,13.072 Z M128.224001,18.832 L128.224001,20.64 L129.344001,20.64 L129.344001,18.832 L128.224001,18.832 Z M128.144001,21.904 C128.000001,23.44 127.648001,24.72 127.072001,25.776 L126.048001,24.832 C126.624001,23.696 126.912001,22.256 126.928001,20.496 L126.928001,15.728 L126.112001,14.736 C127.008001,13.792 127.776001,12.48 128.416001,10.816 L129.792001,11.136 C129.680001,11.424 129.568001,11.712 129.456001,11.984 L132.176001,11.984 L132.176001,13.024 C131.872001,13.616 131.568001,14.144 131.264001,14.592 L132.976001,14.592 L132.976001,24.272 C132.976001,25.104 132.528001,25.52 131.648001,25.52 L130.864001,25.52 L130.544001,24.384 L130.544001,25.376 L129.344001,25.376 L129.344001,21.904 L128.144001,21.904 Z M129.728001,14.592 C130.000001,14.192 130.272001,13.728 130.560001,13.216 L128.864001,13.216 C128.608001,13.712 128.336001,14.176 128.048001,14.592 L129.728001,14.592 Z M130.544001,24.272 C130.784001,24.304 131.008001,24.336 131.216001,24.336 C131.536001,24.336 131.696001,24.16 131.696001,23.824 L131.696001,21.904 L130.544001,21.904 L130.544001,24.272 Z M131.696001,20.64 L131.696001,18.832 L130.544001,18.832 L130.544001,20.64 L131.696001,20.64 Z M131.696001,17.584 L131.696001,15.888 L130.544001,15.888 L130.544001,17.584 L131.696001,17.584 Z M129.344001,15.888 L128.224001,15.888 L128.224001,17.584 L129.344001,17.584 L129.344001,15.888 Z" id="音形义详解" fill="url(#linearGradient-2)"></path>
            </g>
        </g>
    </g>
</svg>