<?xml version="1.0" encoding="UTF-8"?>
<svg width="209px" height="60px" viewBox="0 0 209 60" version="1.1" xmlns="http://www.w3.org/2000/svg" xmlns:xlink="http://www.w3.org/1999/xlink">
    <!-- Generator: Sketch 49.1 (51147) - http://www.bohemiancoding.com/sketch -->
    <title>mulu_4</title>
    <desc>Created with Sketch.</desc>
    <defs>
        <linearGradient x1="0%" y1="0%" x2="86.6067656%" y2="100%" id="linearGradient-1">
            <stop stop-color="#FFC613" offset="0%"></stop>
            <stop stop-color="#FF8320" offset="100%"></stop>
        </linearGradient>
        <rect id="path-2" x="0" y="0" width="209" height="60" rx="6"></rect>
        <linearGradient x1="50%" y1="0%" x2="50%" y2="100%" id="linearGradient-3">
            <stop stop-color="#FFFFFF" offset="0%"></stop>
            <stop stop-color="#FFFFFF" stop-opacity="0" offset="100%"></stop>
        </linearGradient>
    </defs>
    <g id="Page-1" stroke="none" stroke-width="1" fill="none" fill-rule="evenodd">
        <g id="Artboard-5" transform="translate(-413.000000, -425.000000)">
            <g id="Group-21" transform="translate(413.000000, 211.000000)">
                <g id="mulu_4" transform="translate(0.000000, 214.000000)">
                    <g id="Rectangle-13">
                        <use fill="#0C1222" fill-rule="evenodd" xlink:href="#path-2"></use>
                        <rect stroke="url(#linearGradient-1)" stroke-width="2" x="1" y="1" width="207" height="58" rx="6"></rect>
                    </g>
                    <path d="M59.92,11.984 L72.112,11.984 L72.112,13.472 L59.92,13.472 L59.92,11.984 Z M60.992,17.472 L71.024,17.472 L71.024,18.96 L60.992,18.96 L60.992,17.472 Z M58.752,23.376 L73.248,23.376 L73.248,24.896 L58.752,24.896 L58.752,23.376 Z M82.7840003,25.52 L80.2560003,25.52 L79.9040003,24.048 C80.7360003,24.096 81.5200003,24.128 82.2560003,24.128 C82.6560003,24.128 82.8640003,23.888 82.8640003,23.408 L82.8640003,15.152 L82.5760003,15.152 C81.0240003,18.448 78.4000003,21.168 74.7040003,23.28 L73.9040003,21.984 C77.1840003,20.208 79.5680003,17.936 81.0400003,15.152 L74.2080003,15.152 L74.2080003,13.696 L82.8640003,13.696 L82.8640003,10.896 L84.3840003,10.896 L84.3840003,13.696 L88.2720003,13.696 L88.2720003,15.152 L84.3840003,15.152 L84.3840003,23.792 C84.3840003,24.944 83.8400003,25.52 82.7840003,25.52 Z M90.9920005,16.672 L94.5440005,16.672 L95.2800005,13.168 L90.1760005,13.168 L90.1760005,11.696 L103.280001,11.696 L103.280001,13.168 L96.8160005,13.168 L96.0800005,16.672 L101.392001,16.672 L101.392001,23.536 L103.888001,23.536 L103.888001,25.024 L89.5680005,25.024 L89.5680005,23.536 L93.1040005,23.536 L94.2400005,18.144 L90.9920005,18.144 L90.9920005,16.672 Z M94.6240005,23.536 L99.8400005,23.536 L99.8400005,18.144 L95.7600005,18.144 L94.6240005,23.536 Z M108.416001,17.808 L108.416001,25.584 L106.928001,25.584 L106.928001,18.192 C106.464001,19.52 105.888001,20.736 105.216001,21.84 L104.560001,20.192 C105.616001,18.784 106.400001,17.168 106.896001,15.344 L104.928001,15.344 L104.928001,13.888 L106.928001,13.888 L106.928001,10.896 L108.416001,10.896 L108.416001,13.888 L110.032001,13.888 L110.032001,15.344 L108.416001,15.344 L108.416001,16.064 C109.056001,16.768 109.680001,17.52 110.320001,18.352 C111.600001,17.84 112.720001,17.264 113.680001,16.624 C113.104001,16.08 112.608001,15.52 112.192001,14.928 C111.840001,15.36 111.456001,15.76 111.072001,16.144 L110.112001,14.976 C111.200001,13.984 112.128001,12.624 112.896001,10.864 L114.352001,11.2 C114.192001,11.552 114.048001,11.904 113.888001,12.224 L118.224001,12.224 L118.224001,13.392 C117.680001,14.608 116.912001,15.696 115.904001,16.656 C116.944001,17.328 118.160001,17.888 119.536001,18.368 L118.848001,19.808 C117.264001,19.136 115.920001,18.4 114.816001,17.568 C113.824001,18.304 112.656001,18.944 111.344001,19.488 L118.112001,19.488 L118.112001,25.616 L116.640001,25.616 L116.640001,25.008 L112.688001,25.008 L112.688001,25.616 L111.200001,25.616 L111.200001,19.552 C110.944001,19.648 110.688001,19.744 110.448001,19.84 L109.984001,19.232 L109.616001,19.792 C109.152001,18.992 108.752001,18.336 108.416001,17.808 Z M112.688001,23.6 L116.640001,23.6 L116.640001,20.896 L112.688001,20.896 L112.688001,23.6 Z M114.720001,15.808 C115.472001,15.136 116.080001,14.432 116.544001,13.664 L113.072001,13.664 C113.024001,13.728 112.976001,13.808 112.944001,13.872 C113.408001,14.576 114.000001,15.216 114.720001,15.808 Z M129.296001,15.072 L125.728001,15.072 L125.728001,13.648 L127.984001,13.648 C127.536001,12.832 127.072001,12.112 126.592001,11.472 L127.856001,10.864 C128.352001,11.568 128.832001,12.352 129.296001,13.184 L128.384001,13.648 L130.784001,13.648 C131.232001,12.752 131.648001,11.808 132.000001,10.816 L133.440001,11.312 C133.088001,12.192 132.704001,12.976 132.288001,13.648 L134.384001,13.648 L134.384001,15.072 L130.816001,15.072 L130.816001,17.072 L133.904001,17.072 L133.904001,18.496 L130.816001,18.496 L130.816001,20.576 L134.800001,20.576 L134.800001,22.016 L130.816001,22.016 L130.816001,25.664 L129.296001,25.664 L129.296001,22.016 L125.328001,22.016 L125.328001,20.576 L129.296001,20.576 L129.296001,18.496 L126.208001,18.496 L126.208001,17.072 L129.296001,17.072 L129.296001,15.072 Z M122.208001,11.04 C123.232001,11.808 124.096001,12.592 124.800001,13.376 L123.776001,14.416 C123.152001,13.68 122.272001,12.88 121.152001,12.032 L122.208001,11.04 Z M120.048001,15.648 L123.664001,15.648 L123.664001,22.16 C123.984001,21.808 124.336001,21.424 124.688001,21.008 L125.072001,22.528 C124.208001,23.504 123.312001,24.384 122.352001,25.168 L121.792001,23.84 C122.048001,23.6 122.192001,23.312 122.192001,22.976 L122.192001,17.104 L120.048001,17.104 L120.048001,15.648 Z M144.384001,19.68 C144.128001,20.192 143.808001,20.624 143.456001,21.008 L142.576001,19.936 C143.248001,19.2 143.712001,18.224 143.936001,17.008 L145.184001,17.232 C145.104001,17.616 145.024001,17.984 144.928001,18.32 L146.096001,18.32 L146.096001,16.944 L147.584001,16.944 L147.584001,18.32 L149.776001,18.32 L149.776001,19.68 L147.584001,19.68 L147.584001,21.296 L150.112001,21.296 L150.112001,22.688 L147.584001,22.688 L147.584001,25.696 L146.096001,25.696 L146.096001,22.688 L142.688001,22.688 L142.688001,21.296 L146.096001,21.296 L146.096001,19.68 L144.384001,19.68 Z M144.768001,13.072 L142.784001,13.072 L142.784001,11.728 L149.680001,11.728 C149.664001,14 149.504001,15.36 149.200001,15.808 C148.896001,16.256 148.368001,16.48 147.632001,16.48 C147.248001,16.48 146.800001,16.448 146.272001,16.416 L145.920001,15.168 C146.480001,15.2 146.944001,15.232 147.312001,15.264 C147.696001,15.248 147.952001,15.12 148.048001,14.896 C148.144001,14.672 148.192001,14.064 148.224001,13.072 L146.192001,13.072 C146.032001,13.76 145.792001,14.368 145.504001,14.912 C145.072001,15.6 144.448001,16.224 143.632001,16.784 L142.736001,15.648 C143.408001,15.264 143.920001,14.816 144.256001,14.288 C144.480001,13.936 144.640001,13.536 144.768001,13.072 Z M137.584001,18.832 L137.584001,20.64 L138.704001,20.64 L138.704001,18.832 L137.584001,18.832 Z M137.504001,21.904 C137.360001,23.44 137.008001,24.72 136.432001,25.776 L135.408001,24.832 C135.984001,23.696 136.272001,22.256 136.288001,20.496 L136.288001,15.728 L135.472001,14.736 C136.368001,13.792 137.136001,12.48 137.776001,10.816 L139.152001,11.136 C139.040001,11.424 138.928001,11.712 138.816001,11.984 L141.536001,11.984 L141.536001,13.024 C141.232001,13.616 140.928001,14.144 140.624001,14.592 L142.336001,14.592 L142.336001,24.272 C142.336001,25.104 141.888001,25.52 141.008001,25.52 L140.224001,25.52 L139.904001,24.384 L139.904001,25.376 L138.704001,25.376 L138.704001,21.904 L137.504001,21.904 Z M139.088001,14.592 C139.360001,14.192 139.632001,13.728 139.920001,13.216 L138.224001,13.216 C137.968001,13.712 137.696001,14.176 137.408001,14.592 L139.088001,14.592 Z M139.904001,24.272 C140.144001,24.304 140.368001,24.336 140.576001,24.336 C140.896001,24.336 141.056001,24.16 141.056001,23.824 L141.056001,21.904 L139.904001,21.904 L139.904001,24.272 Z M141.056001,20.64 L141.056001,18.832 L139.904001,18.832 L139.904001,20.64 L141.056001,20.64 Z M141.056001,17.584 L141.056001,15.888 L139.904001,15.888 L139.904001,17.584 L141.056001,17.584 Z M138.704001,15.888 L137.584001,15.888 L137.584001,17.584 L138.704001,17.584 L138.704001,15.888 Z" id="三才五格详解" fill="url(#linearGradient-3)"></path>
                </g>
            </g>
        </g>
    </g>
</svg>