<?xml version="1.0" encoding="UTF-8"?>
<svg width="209px" height="60px" viewBox="0 0 209 60" version="1.1" xmlns="http://www.w3.org/2000/svg" xmlns:xlink="http://www.w3.org/1999/xlink">
    <!-- Generator: Sketch 49.1 (51147) - http://www.bohemiancoding.com/sketch -->
    <title>mulu_1</title>
    <desc>Created with Sketch.</desc>
    <defs>
        <linearGradient x1="0%" y1="0%" x2="86.6067656%" y2="100%" id="linearGradient-1">
            <stop stop-color="#FFC613" offset="0%"></stop>
            <stop stop-color="#FF8320" offset="100%"></stop>
        </linearGradient>
        <rect id="path-2" x="0" y="0" width="209" height="60" rx="6"></rect>
        <linearGradient x1="50%" y1="0%" x2="50%" y2="100%" id="linearGradient-3">
            <stop stop-color="#FFFFFF" offset="0%"></stop>
            <stop stop-color="#FFFFFF" stop-opacity="0" offset="100%"></stop>
        </linearGradient>
    </defs>
    <g id="Page-1" stroke="none" stroke-width="1" fill="none" fill-rule="evenodd">
        <g id="Artboard-5" transform="translate(-413.000000, -211.000000)">
            <g id="Group-21" transform="translate(413.000000, 211.000000)">
                <g id="mulu_1">
                    <g id="Rectangle-13">
                        <use fill="#0C1222" fill-rule="evenodd" xlink:href="#path-2"></use>
                        <rect stroke="url(#linearGradient-1)" stroke-width="2" x="1" y="1" width="207" height="58" rx="6"></rect>
                    </g>
                    <path d="M63.12,12.096 L64.608,12.352 C63.712,17.968 62.08,22.304 59.696,25.376 L58.704,24.128 C60.88,21.152 62.352,17.136 63.12,12.096 Z M68.416,11.472 C68.768,17.072 70.4,21.264 73.328,24.032 L72.512,25.44 C69.344,22.624 67.504,18.112 67.008,11.904 L68.416,11.472 Z M88.2400003,12.432 L88.2400003,16.176 L86.7040003,16.176 L86.7040003,13.872 L76.0160003,13.872 L76.0160003,16.176 L74.4800003,16.176 L74.4800003,12.432 L80.5920003,12.432 C80.3680003,11.92 80.1440003,11.44 79.8880003,11.008 L81.6320003,10.72 C81.8560003,11.232 82.0800003,11.792 82.2880003,12.432 L88.2400003,12.432 Z M76.9920003,15.296 L85.6960003,15.296 L85.6960003,16.704 C84.6880003,17.408 83.5680003,18.112 82.3200003,18.8 L82.3200003,19.584 L88.4960003,19.584 L88.4960003,21.056 L82.3200003,21.056 L82.3200003,24.064 C82.3200003,25.072 81.7920003,25.584 80.7360003,25.584 L78.7680003,25.584 L78.4000003,24.208 C78.9600003,24.224 79.5680003,24.24 80.2240003,24.24 C80.6080003,24.24 80.8000003,24 80.8000003,23.536 L80.8000003,21.056 L74.2400003,21.056 L74.2400003,19.584 L80.8000003,19.584 L80.8000003,18.176 C81.9200003,17.584 82.8000003,17.088 83.4400003,16.704 L76.9920003,16.704 L76.9920003,15.296 Z M90.9920005,16.672 L94.5440005,16.672 L95.2800005,13.168 L90.1760005,13.168 L90.1760005,11.696 L103.280001,11.696 L103.280001,13.168 L96.8160005,13.168 L96.0800005,16.672 L101.392001,16.672 L101.392001,23.536 L103.888001,23.536 L103.888001,25.024 L89.5680005,25.024 L89.5680005,23.536 L93.1040005,23.536 L94.2400005,18.144 L90.9920005,18.144 L90.9920005,16.672 Z M94.6240005,23.536 L99.8400005,23.536 L99.8400005,18.144 L95.7600005,18.144 L94.6240005,23.536 Z M110.800001,11.776 L118.608001,11.776 L118.608001,13.264 L110.800001,13.264 L110.800001,11.776 Z M110.400001,15.776 L119.296001,15.776 L119.296001,17.264 L116.800001,17.264 L116.800001,24.048 C116.800001,25.072 116.224001,25.584 115.088001,25.584 L112.768001,25.584 L112.432001,24.096 C113.168001,24.16 113.888001,24.192 114.560001,24.192 C115.024001,24.192 115.264001,24.016 115.264001,23.68 L115.264001,17.264 L110.400001,17.264 L110.400001,15.776 Z M108.080001,10.992 L109.472001,11.632 C108.608001,13.392 107.168001,14.96 105.120001,16.368 L104.656001,14.848 C106.208001,13.744 107.344001,12.464 108.080001,10.992 Z M108.832001,14.656 L110.208001,15.296 C109.776001,16.16 109.232001,16.976 108.576001,17.744 L108.576001,25.648 L107.088001,25.648 L107.088001,19.232 C106.512001,19.728 105.904001,20.208 105.232001,20.672 L104.784001,19.168 C106.608001,17.888 107.968001,16.384 108.832001,14.656 Z M129.296001,15.072 L125.728001,15.072 L125.728001,13.648 L127.984001,13.648 C127.536001,12.832 127.072001,12.112 126.592001,11.472 L127.856001,10.864 C128.352001,11.568 128.832001,12.352 129.296001,13.184 L128.384001,13.648 L130.784001,13.648 C131.232001,12.752 131.648001,11.808 132.000001,10.816 L133.440001,11.312 C133.088001,12.192 132.704001,12.976 132.288001,13.648 L134.384001,13.648 L134.384001,15.072 L130.816001,15.072 L130.816001,17.072 L133.904001,17.072 L133.904001,18.496 L130.816001,18.496 L130.816001,20.576 L134.800001,20.576 L134.800001,22.016 L130.816001,22.016 L130.816001,25.664 L129.296001,25.664 L129.296001,22.016 L125.328001,22.016 L125.328001,20.576 L129.296001,20.576 L129.296001,18.496 L126.208001,18.496 L126.208001,17.072 L129.296001,17.072 L129.296001,15.072 Z M122.208001,11.04 C123.232001,11.808 124.096001,12.592 124.800001,13.376 L123.776001,14.416 C123.152001,13.68 122.272001,12.88 121.152001,12.032 L122.208001,11.04 Z M120.048001,15.648 L123.664001,15.648 L123.664001,22.16 C123.984001,21.808 124.336001,21.424 124.688001,21.008 L125.072001,22.528 C124.208001,23.504 123.312001,24.384 122.352001,25.168 L121.792001,23.84 C122.048001,23.6 122.192001,23.312 122.192001,22.976 L122.192001,17.104 L120.048001,17.104 L120.048001,15.648 Z M144.384001,19.68 C144.128001,20.192 143.808001,20.624 143.456001,21.008 L142.576001,19.936 C143.248001,19.2 143.712001,18.224 143.936001,17.008 L145.184001,17.232 C145.104001,17.616 145.024001,17.984 144.928001,18.32 L146.096001,18.32 L146.096001,16.944 L147.584001,16.944 L147.584001,18.32 L149.776001,18.32 L149.776001,19.68 L147.584001,19.68 L147.584001,21.296 L150.112001,21.296 L150.112001,22.688 L147.584001,22.688 L147.584001,25.696 L146.096001,25.696 L146.096001,22.688 L142.688001,22.688 L142.688001,21.296 L146.096001,21.296 L146.096001,19.68 L144.384001,19.68 Z M144.768001,13.072 L142.784001,13.072 L142.784001,11.728 L149.680001,11.728 C149.664001,14 149.504001,15.36 149.200001,15.808 C148.896001,16.256 148.368001,16.48 147.632001,16.48 C147.248001,16.48 146.800001,16.448 146.272001,16.416 L145.920001,15.168 C146.480001,15.2 146.944001,15.232 147.312001,15.264 C147.696001,15.248 147.952001,15.12 148.048001,14.896 C148.144001,14.672 148.192001,14.064 148.224001,13.072 L146.192001,13.072 C146.032001,13.76 145.792001,14.368 145.504001,14.912 C145.072001,15.6 144.448001,16.224 143.632001,16.784 L142.736001,15.648 C143.408001,15.264 143.920001,14.816 144.256001,14.288 C144.480001,13.936 144.640001,13.536 144.768001,13.072 Z M137.584001,18.832 L137.584001,20.64 L138.704001,20.64 L138.704001,18.832 L137.584001,18.832 Z M137.504001,21.904 C137.360001,23.44 137.008001,24.72 136.432001,25.776 L135.408001,24.832 C135.984001,23.696 136.272001,22.256 136.288001,20.496 L136.288001,15.728 L135.472001,14.736 C136.368001,13.792 137.136001,12.48 137.776001,10.816 L139.152001,11.136 C139.040001,11.424 138.928001,11.712 138.816001,11.984 L141.536001,11.984 L141.536001,13.024 C141.232001,13.616 140.928001,14.144 140.624001,14.592 L142.336001,14.592 L142.336001,24.272 C142.336001,25.104 141.888001,25.52 141.008001,25.52 L140.224001,25.52 L139.904001,24.384 L139.904001,25.376 L138.704001,25.376 L138.704001,21.904 L137.504001,21.904 Z M139.088001,14.592 C139.360001,14.192 139.632001,13.728 139.920001,13.216 L138.224001,13.216 C137.968001,13.712 137.696001,14.176 137.408001,14.592 L139.088001,14.592 Z M139.904001,24.272 C140.144001,24.304 140.368001,24.336 140.576001,24.336 C140.896001,24.336 141.056001,24.16 141.056001,23.824 L141.056001,21.904 L139.904001,21.904 L139.904001,24.272 Z M141.056001,20.64 L141.056001,18.832 L139.904001,18.832 L139.904001,20.64 L141.056001,20.64 Z M141.056001,17.584 L141.056001,15.888 L139.904001,15.888 L139.904001,17.584 L141.056001,17.584 Z M138.704001,15.888 L137.584001,15.888 L137.584001,17.584 L138.704001,17.584 L138.704001,15.888 Z" id="八字五行详解" fill="url(#linearGradient-3)"></path>
                </g>
            </g>
        </g>
    </g>
</svg>