<?xml version="1.0" encoding="UTF-8"?>
<svg width="209px" height="60px" viewBox="0 0 209 60" version="1.1" xmlns="http://www.w3.org/2000/svg" xmlns:xlink="http://www.w3.org/1999/xlink">
    <!-- Generator: Sketch 49.1 (51147) - http://www.bohemiancoding.com/sketch -->
    <title>mulu_6</title>
    <desc>Created with Sketch.</desc>
    <defs>
        <linearGradient x1="0%" y1="0%" x2="86.6067656%" y2="100%" id="linearGradient-1">
            <stop stop-color="#FFC613" offset="0%"></stop>
            <stop stop-color="#FF8320" offset="100%"></stop>
        </linearGradient>
        <rect id="path-2" x="0" y="0" width="209" height="60" rx="6"></rect>
        <linearGradient x1="50%" y1="0%" x2="50%" y2="100%" id="linearGradient-3">
            <stop stop-color="#FFFFFF" offset="0%"></stop>
            <stop stop-color="#FFFFFF" stop-opacity="0" offset="100%"></stop>
        </linearGradient>
    </defs>
    <g id="Page-1" stroke="none" stroke-width="1" fill="none" fill-rule="evenodd">
        <g id="Artboard-5" transform="translate(-413.000000, -572.000000)">
            <g id="Group-21" transform="translate(413.000000, 211.000000)">
                <g id="mulu_6" transform="translate(0.000000, 361.000000)">
                    <g id="Rectangle-13">
                        <use fill="#0C1222" fill-rule="evenodd" xlink:href="#path-2"></use>
                        <rect stroke="url(#linearGradient-1)" stroke-width="2" x="1" y="1" width="207" height="58" rx="6"></rect>
                    </g>
                    <path d="M79.168,18.352 L79.168,25.648 L77.648,25.648 L77.648,25.008 L70.416,25.008 L70.416,25.648 L68.896,25.648 L68.896,18.352 L79.168,18.352 Z M70.416,23.696 L77.648,23.696 L77.648,22.352 L70.416,22.352 L70.416,23.696 Z M70.416,21.056 L77.648,21.056 L77.648,19.68 L70.416,19.68 L70.416,21.056 Z M67.648,12.32 L73.264,12.32 C73.04,11.84 72.816,11.392 72.56,10.976 L74.192,10.72 C74.416,11.2 74.624,11.728 74.832,12.32 L80.368,12.32 L80.368,13.728 L77.904,13.728 C77.696,14.496 77.408,15.232 77.056,15.936 L81.104,15.936 L81.104,17.344 L66.896,17.344 L66.896,15.936 L70.864,15.936 C70.624,15.136 70.368,14.4 70.112,13.728 L67.648,13.728 L67.648,12.32 Z M71.696,13.728 C71.92,14.4 72.144,15.136 72.352,15.936 L75.568,15.936 C75.92,15.232 76.208,14.496 76.4,13.728 L71.696,13.728 Z M82.3040003,11.408 L90.3840003,11.408 L90.3840003,12.832 L88.9120003,12.832 L88.9120003,17.056 L90.6240003,17.056 L90.6240003,18.528 L88.9120003,18.528 L88.9120003,25.536 L87.3600003,25.536 L87.3600003,18.528 L85.3280003,18.528 C85.1840003,21.696 84.4640003,24.048 83.1840003,25.568 L82.0480003,24.576 C83.0880003,23.264 83.6640003,21.248 83.7920003,18.528 L82.0160003,18.528 L82.0160003,17.056 L83.8240003,17.056 L83.8240003,12.832 L82.3040003,12.832 L82.3040003,11.408 Z M85.3600003,12.832 L85.3600003,17.056 L87.3600003,17.056 L87.3600003,12.832 L85.3600003,12.832 Z M94.8320003,10.928 L95.8240003,12.08 C94.5120003,13.392 92.9120003,14.48 91.0080003,15.344 L90.3680003,13.952 C92.1760003,13.184 93.6640003,12.176 94.8320003,10.928 Z M95.5360003,15.2 L96.5280003,16.352 C95.2160003,17.776 93.6000003,18.96 91.6800003,19.888 L91.0400003,18.512 C92.8640003,17.68 94.3520003,16.576 95.5360003,15.2 Z M95.9200003,19.632 L96.9280003,20.784 C95.2960003,22.736 93.2800003,24.336 90.9120003,25.616 L90.2560003,24.208 C92.5600003,23.056 94.4480003,21.52 95.9200003,19.632 Z M103.712001,10.864 C104.672001,12 105.520001,13.248 106.256001,14.608 L104.864001,15.312 C104.096001,13.888 103.232001,12.624 102.288001,11.504 L103.712001,10.864 Z M108.832001,11.648 L110.336001,11.984 C109.632001,15.664 108.192001,18.656 106.032001,20.976 C107.744001,22.32 109.744001,23.392 112.016001,24.176 L111.072001,25.584 C108.720001,24.72 106.656001,23.552 104.880001,22.08 C103.088001,23.616 100.928001,24.816 98.3840005,25.648 L97.5200005,24.256 C99.9360005,23.488 101.984001,22.384 103.648001,20.976 C101.648001,19.024 100.048001,16.656 98.8640005,13.84 L100.256001,13.04 C101.328001,15.776 102.832001,18.064 104.784001,19.904 C106.832001,17.76 108.176001,15.008 108.832001,11.648 Z M121.936001,15.072 L118.368001,15.072 L118.368001,13.648 L120.624001,13.648 C120.176001,12.832 119.712001,12.112 119.232001,11.472 L120.496001,10.864 C120.992001,11.568 121.472001,12.352 121.936001,13.184 L121.024001,13.648 L123.424001,13.648 C123.872001,12.752 124.288001,11.808 124.640001,10.816 L126.080001,11.312 C125.728001,12.192 125.344001,12.976 124.928001,13.648 L127.024001,13.648 L127.024001,15.072 L123.456001,15.072 L123.456001,17.072 L126.544001,17.072 L126.544001,18.496 L123.456001,18.496 L123.456001,20.576 L127.440001,20.576 L127.440001,22.016 L123.456001,22.016 L123.456001,25.664 L121.936001,25.664 L121.936001,22.016 L117.968001,22.016 L117.968001,20.576 L121.936001,20.576 L121.936001,18.496 L118.848001,18.496 L118.848001,17.072 L121.936001,17.072 L121.936001,15.072 Z M114.848001,11.04 C115.872001,11.808 116.736001,12.592 117.440001,13.376 L116.416001,14.416 C115.792001,13.68 114.912001,12.88 113.792001,12.032 L114.848001,11.04 Z M112.688001,15.648 L116.304001,15.648 L116.304001,22.16 C116.624001,21.808 116.976001,21.424 117.328001,21.008 L117.712001,22.528 C116.848001,23.504 115.952001,24.384 114.992001,25.168 L114.432001,23.84 C114.688001,23.6 114.832001,23.312 114.832001,22.976 L114.832001,17.104 L112.688001,17.104 L112.688001,15.648 Z M137.024001,19.68 C136.768001,20.192 136.448001,20.624 136.096001,21.008 L135.216001,19.936 C135.888001,19.2 136.352001,18.224 136.576001,17.008 L137.824001,17.232 C137.744001,17.616 137.664001,17.984 137.568001,18.32 L138.736001,18.32 L138.736001,16.944 L140.224001,16.944 L140.224001,18.32 L142.416001,18.32 L142.416001,19.68 L140.224001,19.68 L140.224001,21.296 L142.752001,21.296 L142.752001,22.688 L140.224001,22.688 L140.224001,25.696 L138.736001,25.696 L138.736001,22.688 L135.328001,22.688 L135.328001,21.296 L138.736001,21.296 L138.736001,19.68 L137.024001,19.68 Z M137.408001,13.072 L135.424001,13.072 L135.424001,11.728 L142.320001,11.728 C142.304001,14 142.144001,15.36 141.840001,15.808 C141.536001,16.256 141.008001,16.48 140.272001,16.48 C139.888001,16.48 139.440001,16.448 138.912001,16.416 L138.560001,15.168 C139.120001,15.2 139.584001,15.232 139.952001,15.264 C140.336001,15.248 140.592001,15.12 140.688001,14.896 C140.784001,14.672 140.832001,14.064 140.864001,13.072 L138.832001,13.072 C138.672001,13.76 138.432001,14.368 138.144001,14.912 C137.712001,15.6 137.088001,16.224 136.272001,16.784 L135.376001,15.648 C136.048001,15.264 136.560001,14.816 136.896001,14.288 C137.120001,13.936 137.280001,13.536 137.408001,13.072 Z M130.224001,18.832 L130.224001,20.64 L131.344001,20.64 L131.344001,18.832 L130.224001,18.832 Z M130.144001,21.904 C130.000001,23.44 129.648001,24.72 129.072001,25.776 L128.048001,24.832 C128.624001,23.696 128.912001,22.256 128.928001,20.496 L128.928001,15.728 L128.112001,14.736 C129.008001,13.792 129.776001,12.48 130.416001,10.816 L131.792001,11.136 C131.680001,11.424 131.568001,11.712 131.456001,11.984 L134.176001,11.984 L134.176001,13.024 C133.872001,13.616 133.568001,14.144 133.264001,14.592 L134.976001,14.592 L134.976001,24.272 C134.976001,25.104 134.528001,25.52 133.648001,25.52 L132.864001,25.52 L132.544001,24.384 L132.544001,25.376 L131.344001,25.376 L131.344001,21.904 L130.144001,21.904 Z M131.728001,14.592 C132.000001,14.192 132.272001,13.728 132.560001,13.216 L130.864001,13.216 C130.608001,13.712 130.336001,14.176 130.048001,14.592 L131.728001,14.592 Z M132.544001,24.272 C132.784001,24.304 133.008001,24.336 133.216001,24.336 C133.536001,24.336 133.696001,24.16 133.696001,23.824 L133.696001,21.904 L132.544001,21.904 L132.544001,24.272 Z M133.696001,20.64 L133.696001,18.832 L132.544001,18.832 L132.544001,20.64 L133.696001,20.64 Z M133.696001,17.584 L133.696001,15.888 L132.544001,15.888 L132.544001,17.584 L133.696001,17.584 Z M131.344001,15.888 L130.224001,15.888 L130.224001,17.584 L131.344001,17.584 L131.344001,15.888 Z" id="音形义详解" fill="url(#linearGradient-3)"></path>
                </g>
            </g>
        </g>
    </g>
</svg>