<?xml version="1.0" encoding="UTF-8"?>
<svg width="209px" height="60px" viewBox="0 0 209 60" version="1.1" xmlns="http://www.w3.org/2000/svg" xmlns:xlink="http://www.w3.org/1999/xlink">
    <!-- Generator: Sketch 49.1 (51147) - http://www.bohemiancoding.com/sketch -->
    <title>mulu_5</title>
    <desc>Created with Sketch.</desc>
    <defs>
        <linearGradient x1="0%" y1="0%" x2="86.6067656%" y2="100%" id="linearGradient-1">
            <stop stop-color="#FFC613" offset="0%"></stop>
            <stop stop-color="#FF8320" offset="100%"></stop>
        </linearGradient>
        <rect id="path-2" x="0" y="0" width="209" height="60" rx="6"></rect>
        <linearGradient x1="50%" y1="0%" x2="50%" y2="100%" id="linearGradient-3">
            <stop stop-color="#FFFFFF" offset="0%"></stop>
            <stop stop-color="#FFFFFF" stop-opacity="0" offset="100%"></stop>
        </linearGradient>
    </defs>
    <g id="Page-1" stroke="none" stroke-width="1" fill="none" fill-rule="evenodd">
        <g id="Artboard-5" transform="translate(-413.000000, -499.000000)">
            <g id="Group-21" transform="translate(413.000000, 211.000000)">
                <g id="mulu_5" transform="translate(0.000000, 288.000000)">
                    <g id="Rectangle-13">
                        <use fill="#0C1222" fill-rule="evenodd" xlink:href="#path-2"></use>
                        <rect stroke="url(#linearGradient-1)" stroke-width="2" x="1" y="1" width="207" height="58" rx="6"></rect>
                    </g>
                    <path d="M65.44,13.2 L66.912,13.2 L66.912,14.32 L69.616,14.32 L69.616,15.568 L66.912,15.568 L66.912,16.864 L70.112,16.864 L70.112,18.192 L62.24,18.192 L62.24,16.864 L65.44,16.864 L65.44,15.568 L62.688,15.568 L62.688,14.32 L65.44,14.32 L65.44,13.2 Z M72.352,11.424 L72.352,24.16 C72.352,25.088 71.792,25.568 70.704,25.568 L68.672,25.568 L68.272,24.128 C68.976,24.176 69.632,24.208 70.24,24.208 C70.64,24.208 70.848,24.016 70.848,23.632 L70.848,12.816 L61.536,12.816 L61.536,17.76 C61.504,21.008 60.944,23.648 59.824,25.664 L58.672,24.624 C59.536,22.848 59.984,20.608 60.016,17.888 L60.016,11.424 L72.352,11.424 Z M62.736,19.152 L69.456,19.152 L69.456,23.296 L62.736,23.296 L62.736,19.152 Z M68,22 L68,20.416 L64.192,20.416 L64.192,22 L68,22 Z M78.3680003,17.312 L76.3840003,17.312 L76.3840003,11.392 L86.4160003,11.392 L86.4160003,17.312 L80.1280003,17.312 C79.8880003,17.664 79.6160003,18.016 79.3280003,18.336 L87.6160003,18.336 C87.5680003,20.096 87.4720003,21.504 87.3280003,22.592 C87.1680003,23.648 86.9280003,24.4 86.5920003,24.816 C86.2560003,25.232 85.7120003,25.456 84.9440003,25.488 L82.7200003,25.488 L82.3200003,24.064 C82.9760003,24.096 83.6000003,24.128 84.2080003,24.128 C84.9280003,24.128 85.4080003,23.856 85.6320003,23.312 C85.8560003,22.736 86.0160003,21.536 86.0800003,19.68 L84.8320003,19.68 C83.4560003,22.672 81.2800003,24.656 78.3040003,25.616 L77.4400003,24.352 C80.1120003,23.52 82.0640003,21.952 83.2800003,19.68 L81.5520003,19.68 C80.4320003,21.408 78.6560003,22.768 76.1920003,23.76 L75.2160003,22.576 C77.3440003,21.808 78.9120003,20.848 79.9200003,19.68 L77.8400003,19.68 C77.0720003,20.256 76.1920003,20.768 75.2160003,21.216 L74.3840003,19.872 C76.1600003,19.184 77.4880003,18.336 78.3680003,17.312 Z M84.9280003,16.032 L84.9280003,14.944 L77.8720003,14.944 L77.8720003,16.032 L84.9280003,16.032 Z M77.8720003,13.744 L84.9280003,13.744 L84.9280003,12.688 L77.8720003,12.688 L77.8720003,13.744 Z M93.8400005,12.096 L95.3280005,12.352 C94.4320005,17.968 92.8000005,22.304 90.4160005,25.376 L89.4240005,24.128 C91.6000005,21.152 93.0720005,17.136 93.8400005,12.096 Z M99.1360005,11.472 C99.4880005,17.072 101.120001,21.264 104.048001,24.032 L103.232001,25.44 C100.064001,22.624 98.2240005,18.112 97.7280005,11.904 L99.1360005,11.472 Z M113.968001,10.912 L115.472001,10.912 L115.472001,16.096 C116.816001,17.008 118.160001,18.048 119.536001,19.216 L118.592001,20.608 C117.360001,19.392 116.320001,18.448 115.472001,17.76 L115.472001,25.664 L113.968001,25.664 L113.968001,10.912 Z M105.232001,12.896 L108.176001,12.896 L108.176001,11.072 L109.664001,11.072 L109.664001,12.896 L112.640001,12.896 L112.640001,14.336 L109.664001,14.336 L109.664001,16.08 L112.992001,16.08 L112.992001,17.552 L104.928001,17.552 L104.928001,16.08 L108.176001,16.08 L108.176001,14.336 L105.232001,14.336 L105.232001,12.896 Z M105.168001,19.632 L108.176001,19.632 L108.176001,17.984 L109.664001,17.984 L109.664001,19.632 L112.736001,19.632 L112.736001,21.056 L109.664001,21.056 L109.664001,23.152 C110.992001,23.008 112.224001,22.848 113.344001,22.672 L113.344001,24.144 C110.864001,24.544 108.032001,24.88 104.864001,25.136 L104.656001,23.6 C105.888001,23.504 107.056001,23.408 108.176001,23.312 L108.176001,21.056 L105.168001,21.056 L105.168001,19.632 Z M129.296001,15.072 L125.728001,15.072 L125.728001,13.648 L127.984001,13.648 C127.536001,12.832 127.072001,12.112 126.592001,11.472 L127.856001,10.864 C128.352001,11.568 128.832001,12.352 129.296001,13.184 L128.384001,13.648 L130.784001,13.648 C131.232001,12.752 131.648001,11.808 132.000001,10.816 L133.440001,11.312 C133.088001,12.192 132.704001,12.976 132.288001,13.648 L134.384001,13.648 L134.384001,15.072 L130.816001,15.072 L130.816001,17.072 L133.904001,17.072 L133.904001,18.496 L130.816001,18.496 L130.816001,20.576 L134.800001,20.576 L134.800001,22.016 L130.816001,22.016 L130.816001,25.664 L129.296001,25.664 L129.296001,22.016 L125.328001,22.016 L125.328001,20.576 L129.296001,20.576 L129.296001,18.496 L126.208001,18.496 L126.208001,17.072 L129.296001,17.072 L129.296001,15.072 Z M122.208001,11.04 C123.232001,11.808 124.096001,12.592 124.800001,13.376 L123.776001,14.416 C123.152001,13.68 122.272001,12.88 121.152001,12.032 L122.208001,11.04 Z M120.048001,15.648 L123.664001,15.648 L123.664001,22.16 C123.984001,21.808 124.336001,21.424 124.688001,21.008 L125.072001,22.528 C124.208001,23.504 123.312001,24.384 122.352001,25.168 L121.792001,23.84 C122.048001,23.6 122.192001,23.312 122.192001,22.976 L122.192001,17.104 L120.048001,17.104 L120.048001,15.648 Z M144.384001,19.68 C144.128001,20.192 143.808001,20.624 143.456001,21.008 L142.576001,19.936 C143.248001,19.2 143.712001,18.224 143.936001,17.008 L145.184001,17.232 C145.104001,17.616 145.024001,17.984 144.928001,18.32 L146.096001,18.32 L146.096001,16.944 L147.584001,16.944 L147.584001,18.32 L149.776001,18.32 L149.776001,19.68 L147.584001,19.68 L147.584001,21.296 L150.112001,21.296 L150.112001,22.688 L147.584001,22.688 L147.584001,25.696 L146.096001,25.696 L146.096001,22.688 L142.688001,22.688 L142.688001,21.296 L146.096001,21.296 L146.096001,19.68 L144.384001,19.68 Z M144.768001,13.072 L142.784001,13.072 L142.784001,11.728 L149.680001,11.728 C149.664001,14 149.504001,15.36 149.200001,15.808 C148.896001,16.256 148.368001,16.48 147.632001,16.48 C147.248001,16.48 146.800001,16.448 146.272001,16.416 L145.920001,15.168 C146.480001,15.2 146.944001,15.232 147.312001,15.264 C147.696001,15.248 147.952001,15.12 148.048001,14.896 C148.144001,14.672 148.192001,14.064 148.224001,13.072 L146.192001,13.072 C146.032001,13.76 145.792001,14.368 145.504001,14.912 C145.072001,15.6 144.448001,16.224 143.632001,16.784 L142.736001,15.648 C143.408001,15.264 143.920001,14.816 144.256001,14.288 C144.480001,13.936 144.640001,13.536 144.768001,13.072 Z M137.584001,18.832 L137.584001,20.64 L138.704001,20.64 L138.704001,18.832 L137.584001,18.832 Z M137.504001,21.904 C137.360001,23.44 137.008001,24.72 136.432001,25.776 L135.408001,24.832 C135.984001,23.696 136.272001,22.256 136.288001,20.496 L136.288001,15.728 L135.472001,14.736 C136.368001,13.792 137.136001,12.48 137.776001,10.816 L139.152001,11.136 C139.040001,11.424 138.928001,11.712 138.816001,11.984 L141.536001,11.984 L141.536001,13.024 C141.232001,13.616 140.928001,14.144 140.624001,14.592 L142.336001,14.592 L142.336001,24.272 C142.336001,25.104 141.888001,25.52 141.008001,25.52 L140.224001,25.52 L139.904001,24.384 L139.904001,25.376 L138.704001,25.376 L138.704001,21.904 L137.504001,21.904 Z M139.088001,14.592 C139.360001,14.192 139.632001,13.728 139.920001,13.216 L138.224001,13.216 C137.968001,13.712 137.696001,14.176 137.408001,14.592 L139.088001,14.592 Z M139.904001,24.272 C140.144001,24.304 140.368001,24.336 140.576001,24.336 C140.896001,24.336 141.056001,24.16 141.056001,23.824 L141.056001,21.904 L139.904001,21.904 L139.904001,24.272 Z M141.056001,20.64 L141.056001,18.832 L139.904001,18.832 L139.904001,20.64 L141.056001,20.64 Z M141.056001,17.584 L141.056001,15.888 L139.904001,15.888 L139.904001,17.584 L141.056001,17.584 Z M138.704001,15.888 L137.584001,15.888 L137.584001,17.584 L138.704001,17.584 L138.704001,15.888 Z" id="周易八卦详解" fill="url(#linearGradient-3)"></path>
                </g>
            </g>
        </g>
    </g>
</svg>