<?xml version="1.0" encoding="UTF-8"?>
<svg width="68px" height="225px" viewBox="0 0 68 225" version="1.1" xmlns="http://www.w3.org/2000/svg" xmlns:xlink="http://www.w3.org/1999/xlink">
    <!-- Generator: Sketch 49.1 (51147) - http://www.bohemiancoding.com/sketch -->
    <title>mzys_bt</title>
    <desc>Created with Sketch.</desc>
    <defs></defs>
    <g id="Page-1" stroke="none" stroke-width="1" fill="none" fill-rule="evenodd">
        <g id="Artboard-10" transform="translate(-323.000000, -209.000000)">
            <g id="mzys_bt" transform="translate(324.000000, 210.000000)">
                <g id="Group-9" stroke="#0064AE">
                    <g id="Group-10">
                        <polyline id="Path-4" points="4 8 3 8 3 10 5 10 5 6 1 6 1 8 0 8 0 23"></polyline>
                        <polyline id="Path-4" transform="translate(2.500000, 118.750000) scale(-1, 1) rotate(-180.000000) translate(-2.500000, -118.750000) " points="4 22.5 3 22.5 3 24.5 5 24.5 5 20.5 1 20.5 1 22.5 0 22.5 0 217"></polyline>
                        <polyline id="Path-4" transform="translate(63.500000, 14.500000) scale(-1, 1) translate(-63.500000, -14.500000) " points="65 8 64 8 64 10 66 10 66 6 62 6 62 8 61 8 61 23"></polyline>
                        <polyline id="Path-4" transform="translate(63.500000, 119.000000) rotate(180.000000) translate(-63.500000, -119.000000) " points="65 23 64 23 64 25 66 25 66 21 62 21 62 23 61 23 61 217"></polyline>
                        <polyline id="Path-4-Copy" transform="translate(14.500000, 2.500000) scale(-1, 1) rotate(90.000000) translate(-14.500000, -2.500000) " points="16 -4 15 -4 15 -2 17 -2 17 -6 13 -6 13 -4 12 -4 12 11"></polyline>
                        <polyline id="Path-4-Copy" transform="translate(40.250000, 2.500000) rotate(90.000000) translate(-40.250000, -2.500000) " points="41.75 -15.25 40.75 -15.25 40.75 -13.25 42.75 -13.25 42.75 -17.25 38.75 -17.25 38.75 -15.25 37.75 -15.25 37.75 22.25"></polyline>
                        <polyline id="Path-4-Copy" transform="translate(14.500000, 2.500000) scale(-1, 1) rotate(90.000000) translate(-14.500000, -2.500000) " points="16 -4 15 -4 15 -2 17 -2 17 -6 13 -6 13 -4 12 -4 12 11"></polyline>
                        <polyline id="Path-4-Copy" transform="translate(40.250000, 2.500000) rotate(90.000000) translate(-40.250000, -2.500000) " points="41.75 -15.25 40.75 -15.25 40.75 -13.25 42.75 -13.25 42.75 -17.25 38.75 -17.25 38.75 -15.25 37.75 -15.25 37.75 22.25"></polyline>
                        <polyline id="Path-4-Copy" transform="translate(14.500000, 220.500000) rotate(-90.000000) translate(-14.500000, -220.500000) " points="16 214 15 214 15 216 17 216 17 212 13 212 13 214 12 214 12 229"></polyline>
                        <polyline id="Path-4-Copy" transform="translate(40.000000, 220.500000) scale(-1, 1) rotate(-90.000000) translate(-40.000000, -220.500000) " points="41.5 202.5 40.5 202.5 40.5 204.5 42.5 204.5 42.5 200.5 38.5 200.5 38.5 202.5 37.5 202.5 37.5 240.5"></polyline>
                    </g>
                    <g id="Group-10" transform="translate(6.000000, 7.000000)">
                        <polyline id="Path-4" points="4 8 3 8 3 10 5 10 5 6 1 6 1 8 0 8 0 23"></polyline>
                        <polyline id="Path-4" transform="translate(2.500000, 110.250000) scale(-1, 1) rotate(-180.000000) translate(-2.500000, -110.250000) " points="4 22.5 3 22.5 3 24.5 5 24.5 5 20.5 1 20.5 1 22.5 0 22.5 0 200"></polyline>
                        <polyline id="Path-4" transform="translate(52.500000, 14.500000) scale(-1, 1) translate(-52.500000, -14.500000) " points="54 8 53 8 53 10 55 10 55 6 51 6 51 8 50 8 50 23"></polyline>
                        <polyline id="Path-4" transform="translate(52.500000, 110.500000) rotate(180.000000) translate(-52.500000, -110.500000) " points="54 23 53 23 53 25 55 25 55 21 51 21 51 23 50 23 50 200"></polyline>
                        <polyline id="Path-4-Copy" transform="translate(14.500000, 2.500000) scale(-1, 1) rotate(90.000000) translate(-14.500000, -2.500000) " points="16 -4 15 -4 15 -2 17 -2 17 -6 13 -6 13 -4 12 -4 12 11"></polyline>
                        <polyline id="Path-4-Copy" transform="translate(34.750000, 2.500000) rotate(90.000000) translate(-34.750000, -2.500000) " points="36.25 -9.75 35.25 -9.75 35.25 -7.75 37.25 -7.75 37.25 -11.75 33.25 -11.75 33.25 -9.75 32.25 -9.75 32.25 16.75"></polyline>
                        <polyline id="Path-4-Copy" transform="translate(14.500000, 2.500000) scale(-1, 1) rotate(90.000000) translate(-14.500000, -2.500000) " points="16 -4 15 -4 15 -2 17 -2 17 -6 13 -6 13 -4 12 -4 12 11"></polyline>
                        <polyline id="Path-4-Copy" transform="translate(34.750000, 2.500000) rotate(90.000000) translate(-34.750000, -2.500000) " points="36.25 -9.75 35.25 -9.75 35.25 -7.75 37.25 -7.75 37.25 -11.75 33.25 -11.75 33.25 -9.75 32.25 -9.75 32.25 16.75"></polyline>
                        <polyline id="Path-4-Copy" transform="translate(14.500000, 203.500000) rotate(-90.000000) translate(-14.500000, -203.500000) " points="16 197 15 197 15 199 17 199 17 195 13 195 13 197 12 197 12 212"></polyline>
                        <polyline id="Path-4-Copy" transform="translate(34.500000, 203.500000) scale(-1, 1) rotate(-90.000000) translate(-34.500000, -203.500000) " points="36 191 35 191 35 193 37 193 37 189 33 189 33 191 32 191 32 218"></polyline>
                    </g>
                </g>
                <g id="名不正-言不顺" transform="translate(20.000000, 15.000000)" fill="#000000">
                    <path d="M9.311,22.988 L9.311,24.522 L7.439,24.522 L7.439,15.344 C5.827,15.864 4.137,16.332 2.317,16.774 L1.329,14.98 C5.827,14.044 9.571,12.848 12.561,11.34 C11.417,10.378 9.857,9.338 7.881,8.22 L9.493,7.206 C11.469,8.428 13.029,9.52 14.147,10.482 C16.799,8.896 18.723,7.05 19.945,4.918 L10.325,4.918 C8.557,6.556 6.321,8.012 3.565,9.312 L2.317,7.7 C6.763,5.802 9.753,3.462 11.313,0.706 L13.367,0.94 C12.951,1.72 12.483,2.448 11.963,3.15 L22.103,3.15 L22.103,4.814 C20.231,8.376 16.877,11.288 11.989,13.55 L22.831,13.55 L22.831,24.522 L20.933,24.522 L20.933,22.988 L9.311,22.988 Z M20.933,21.168 L20.933,15.292 L9.311,15.292 L9.311,21.168 L20.933,21.168 Z" id="名"></path>
                    <path d="M2.031,28.11 L24.131,28.11 L24.131,29.956 L15.655,29.956 C15.187,31.022 14.641,32.062 14.043,33.05 L14.043,50.652 L12.119,50.652 L12.119,35.806 C9.675,38.848 6.477,41.552 2.525,43.918 L1.303,42.28 C7.179,38.9 11.287,34.792 13.575,29.956 L2.031,29.956 L2.031,28.11 Z M17.319,35.104 C20.309,37.47 22.805,39.836 24.833,42.202 L23.403,43.658 C21.583,41.37 19.113,38.952 15.967,36.378 L17.319,35.104 Z" id="不"></path>
                    <polygon id="正" points="12.873 55.956 3.045 55.956 3.045 54.11 23.585 54.11 23.585 55.956 14.771 55.956 14.771 63.522 22.259 63.522 22.259 65.316 14.771 65.316 14.771 73.636 24.677 73.636 24.677 75.456 1.511 75.456 1.511 73.636 5.593 73.636 5.593 61.156 7.413 61.156 7.413 73.636 12.873 73.636"></polygon>
                    <path d="M1.433,108.06 L12.587,108.06 C12.171,107.02 11.703,106.032 11.157,105.096 L13.107,104.55 C13.679,105.694 14.121,106.734 14.433,107.67 L13.393,108.06 L24.755,108.06 L24.755,109.828 L1.433,109.828 L1.433,108.06 Z M4.787,112.09 L21.401,112.09 L21.401,113.78 L4.787,113.78 L4.787,112.09 Z M4.787,116.068 L21.401,116.068 L21.401,117.758 L4.787,117.758 L4.787,116.068 Z M21.817,120.254 L21.817,128.652 L19.997,128.652 L19.997,127.404 L6.165,127.404 L6.165,128.652 L4.345,128.652 L4.345,120.254 L21.817,120.254 Z M6.165,125.636 L19.997,125.636 L19.997,122.022 L6.165,122.022 L6.165,125.636 Z" id="言"></path>
                    <path d="M2.031,132.11 L24.131,132.11 L24.131,133.956 L15.655,133.956 C15.187,135.022 14.641,136.062 14.043,137.05 L14.043,154.652 L12.119,154.652 L12.119,139.806 C9.675,142.848 6.477,145.552 2.525,147.918 L1.303,146.28 C7.179,142.9 11.287,138.792 13.575,133.956 L2.031,133.956 L2.031,132.11 Z M17.319,139.104 C20.309,141.47 22.805,143.836 24.833,146.202 L23.403,147.658 C21.583,145.37 19.113,142.952 15.967,140.378 L17.319,139.104 Z" id="不"></path>
                    <path d="M5.983,158.708 L7.647,158.708 L7.647,177.662 L5.983,177.662 L5.983,158.708 Z M9.649,157.096 L11.365,157.096 L11.365,180.132 L9.649,180.132 L9.649,157.096 Z M2.317,157.096 L4.085,157.096 L4.085,169.836 C4.059,174.698 3.591,178.26 2.681,180.522 L1.199,179.248 C1.927,177.272 2.317,174.152 2.317,169.836 L2.317,157.096 Z M12.457,157.746 L24.833,157.746 L24.833,159.514 L19.477,159.514 C19.373,160.502 19.243,161.49 19.061,162.426 L23.871,162.426 L23.871,174.75 L22.051,174.75 L22.051,164.168 L15.109,164.168 L15.109,174.75 L13.289,174.75 L13.289,162.426 L17.137,162.426 C17.319,161.49 17.449,160.528 17.553,159.514 L12.457,159.514 L12.457,157.746 Z M17.579,165.754 L19.399,165.754 L19.399,170.278 C19.347,173.06 18.827,175.27 17.865,176.934 C16.929,178.468 15.421,179.664 13.289,180.522 L12.249,178.884 C14.225,178.078 15.629,177.012 16.409,175.686 C17.137,174.308 17.527,172.514 17.579,170.278 L17.579,165.754 Z M20.569,174.906 C22.285,176.336 23.715,177.766 24.859,179.17 L23.507,180.522 C22.467,179.144 21.063,177.688 19.295,176.128 L20.569,174.906 Z" id="顺"></path>
                </g>
                <circle id="Oval-3" stroke="#FF0000" cx="33" cy="109" r="8.5"></circle>
                <circle id="Oval-3" fill="#FF3B52" fill-rule="nonzero" cx="33" cy="109" r="6"></circle>
            </g>
        </g>
    </g>
</svg>