<?xml version="1.0" encoding="UTF-8"?>
<svg width="80px" height="80px" viewBox="0 0 80 80" version="1.1" xmlns="http://www.w3.org/2000/svg" xmlns:xlink="http://www.w3.org/1999/xlink">
    <!-- Generator: Sketch 49.1 (51147) - http://www.bohemiancoding.com/sketch -->
    <title>Group 30</title>
    <desc>Created with Sketch.</desc>
    <defs></defs>
    <g id="Page-1" stroke="none" stroke-width="1" fill="none" fill-rule="evenodd">
        <g id="Artboard-2" transform="translate(-480.000000, -229.000000)">
            <g id="Group-30" transform="translate(480.000000, 229.000000)">
                <circle id="Oval" fill="#0C1222" cx="40" cy="40" r="40"></circle>
                <circle id="Oval-2" fill="#FFFFFF" cx="41" cy="42" r="26"></circle>
                <path d="M40.5,11 C24.230303,11 11,24.230303 11,40.5 C11,56.769697 24.230303,70 40.5,70 C56.769697,70 70,56.769697 70,40.5 C70,24.230303 56.769697,11 40.5,11 Z M40,21 C44.4044944,21 48,24.5955056 48,29 C48,33.4044943 44.4044944,36.9999999 40,37 C35.5955057,37.0000001 32.0000001,33.4044944 32,29 C31.9999999,24.5955056 35.5955056,21 40,21 Z M57.9657937,60.0278014 C56.5474443,62.7399098 53.8880393,64.547982 49.8102849,65 L31.1944496,65 C26.4961674,64.4575783 23.9254092,62.6495061 22.8616472,60.2990123 C22.0638257,58.1293256 21.5319447,57.2252895 22.5957067,51.2586511 C23.5708219,47.0096814 24.1027029,44.9303983 28.0031636,41.1334467 C29.8647471,39.5965853 31.9036243,39.5061817 34.0311484,41.5854647 C36.4246129,44.5687839 36.6019065,46.4672597 37.7543154,47.4616995 C39.7931926,49.2697717 41.1228951,49.1793681 43.0731254,47.4616995 C44.2255343,46.4672597 44.5801217,44.4783803 46.8849394,41.5854647 C48.4805824,39.8677961 51.0513406,39.7773925 52.7356304,41.3142539 C56.5474443,44.8399948 57.0793253,46.7384706 58.1430873,50.8066331 C59.7387304,57.0444822 58.7636152,58.3101329 57.9657937,60.0278014 Z" id="Shape" fill="#0C1222" fill-rule="nonzero"></path>
            </g>
        </g>
    </g>
</svg>