<?xml version="1.0" encoding="UTF-8"?>
<svg width="34px" height="29px" viewBox="0 0 34 29" version="1.1" xmlns="http://www.w3.org/2000/svg" xmlns:xlink="http://www.w3.org/1999/xlink">
    <!-- Generator: Sketch 49.1 (51147) - http://www.bohemiancoding.com/sketch -->
    <title>Combined Shape</title>
    <desc>Created with Sketch.</desc>
    <defs></defs>
    <g id="Page-1" stroke="none" stroke-width="1" fill="none" fill-rule="evenodd">
        <g id="Artboard-2-Copy" transform="translate(-731.000000, -785.000000)" fill="#FFFFFF">
            <g id="支付方式" transform="translate(610.000000, 759.000000)">
                <path d="M137.828352,54.7048548 L121.424143,37.8594125 C120.924825,37.3466641 120.857305,36.5525806 121.262884,35.9628898 L127.519132,26.8666266 C127.892271,26.3241012 128.50854,26 129.166998,26 L146.809556,26 C147.468014,26 148.084283,26.3241012 148.457423,26.8666266 L154.737027,35.9968499 C155.132,36.5711204 155.079371,37.3417925 154.609994,37.8570359 L139.284024,54.6806303 C138.912095,55.0889037 138.279616,55.1183665 137.871342,54.7464373 C137.856601,54.7330082 137.842264,54.7191412 137.828352,54.7048548 Z M129.168015,33.0479064 L129.168015,34.5581721 L132.204313,34.5581721 L137.770861,46.1368754 L143.843459,34.5581721 L145.867658,34.5581721 L145.867658,33.0479064 L140.30111,33.0479064 L140.30111,34.5581721 L141.819259,34.5581721 L138.276911,42.1095004 L135.240612,34.5581721 L136.758762,34.5581721 L136.758762,33.0479064 L129.168015,33.0479064 Z" id="Combined-Shape"></path>
            </g>
        </g>
    </g>
</svg>