<?xml version="1.0" encoding="UTF-8"?>
<svg width="88px" height="18px" viewBox="0 0 88 18" version="1.1" xmlns="http://www.w3.org/2000/svg" xmlns:xlink="http://www.w3.org/1999/xlink">
    <!-- Generator: Sketch 49.1 (51147) - http://www.bohemiancoding.com/sketch -->
    <title>wechat_icon</title>
    <desc>Created with Sketch.</desc>
    <defs></defs>
    <g id="Page-1" stroke="none" stroke-width="1" fill="none" fill-rule="evenodd">
        <g id="Artboard-2-Copy" transform="translate(-933.000000, -952.000000)">
            <g id="Group-36" transform="translate(-1.000000, 0.000000)">
                <g id="支付方式" transform="translate(611.000000, 759.000000)">
                    <g id="Group-41" transform="translate(298.000000, 127.000000)">
                        <g id="wechat_icon" transform="translate(25.000000, 66.000000)">
                            <path d="M36.144,5.704 C36.048,6.088 35.968,6.456 35.872,6.808 C36.096,8.216 36.4,9.48 36.768,10.6 C37.152,9.176 37.376,7.544 37.424,5.704 L36.144,5.704 Z M36.176,12.28 C35.792,11.224 35.472,10.056 35.216,8.776 C34.976,9.368 34.72,9.912 34.448,10.392 L33.616,9.336 C33.648,9.272 33.664,9.224 33.696,9.16 L28.72,9.16 L28.72,7.816 L33.808,7.816 L33.808,8.904 C34.592,7.096 35.136,4.744 35.424,1.848 L36.752,2.072 C36.656,2.84 36.56,3.576 36.432,4.28 L39.264,4.28 L39.264,5.704 L38.704,5.704 C38.64,8.36 38.24,10.616 37.52,12.488 C38.08,13.672 38.736,14.584 39.504,15.256 L38.64,16.552 C37.968,15.88 37.376,15 36.864,13.928 C36.288,14.984 35.584,15.88 34.752,16.632 L33.952,15.352 C34.88,14.568 35.616,13.544 36.176,12.28 Z M32.24,15.736 L31.616,14.488 C31.808,14.376 31.92,14.216 31.968,13.992 L31.968,11.48 L30.592,11.48 L30.592,12.2 C30.56,14.152 30.064,15.608 29.104,16.568 L27.984,15.592 C28.768,14.808 29.168,13.672 29.184,12.2 L29.184,10.104 L33.296,10.104 L33.296,13.432 C33.68,13.08 34.08,12.712 34.48,12.296 L34.784,13.56 C33.952,14.456 33.104,15.176 32.24,15.736 Z M30.736,1.88 L32,1.88 L32,5.416 L32.784,5.416 L32.784,2.744 L34.016,2.744 L34.016,6.696 L28.688,6.696 L28.688,2.744 L29.936,2.744 L29.936,5.416 L30.736,5.416 L30.736,1.88 Z M27.024,1.896 L28.32,2.504 C27.648,4.216 26.528,5.768 24.96,7.144 L24.496,5.672 C25.632,4.584 26.48,3.336 27.024,1.896 Z M27.104,6.184 L28.384,6.792 C28.176,7.352 27.92,7.896 27.632,8.424 L27.632,16.68 L26.208,16.68 L26.208,10.424 C25.84,10.84 25.44,11.24 25.008,11.64 L24.56,10.184 C25.712,9.032 26.56,7.704 27.104,6.184 Z M42.288,8.216 C41.872,8.76 41.44,9.304 40.96,9.848 L40.464,8.216 C41.936,6.36 43.04,4.184 43.76,1.72 L45.184,2.392 C44.816,3.576 44.352,4.728 43.776,5.832 L43.776,16.68 L42.288,16.68 L42.288,8.216 Z M44.896,3.816 L49.584,3.816 C49.376,3.272 49.136,2.744 48.864,2.232 L50.32,1.832 C50.656,2.552 50.912,3.208 51.088,3.816 L55.408,3.816 L55.408,5.24 L44.896,5.24 L44.896,3.816 Z M46.352,6.216 L54.048,6.216 L54.048,7.576 L46.352,7.576 L46.352,6.216 Z M46.352,8.472 L54.048,8.472 L54.048,9.848 L46.352,9.848 L46.352,8.472 Z M54.384,10.856 L54.384,16.648 L52.912,16.648 L52.912,15.816 L47.472,15.816 L47.472,16.648 L46,16.648 L46,10.856 L54.384,10.856 Z M47.472,14.392 L52.912,14.392 L52.912,12.264 L47.472,12.264 L47.472,14.392 Z M63.2,1.88 L64.768,1.88 L64.768,3.848 L70.896,3.848 L70.896,5.32 L64.768,5.32 L64.768,7.416 L69.024,7.416 L69.024,8.76 C68.176,10.488 66.944,11.96 65.344,13.192 C66.064,13.576 66.848,13.944 67.696,14.264 C68.848,14.68 70.048,15.048 71.328,15.336 L70.448,16.68 C69.056,16.312 67.744,15.864 66.496,15.336 C65.616,14.952 64.8,14.536 64.048,14.088 C62.272,15.192 60.128,16.072 57.632,16.744 L56.752,15.384 C59.088,14.856 61.088,14.12 62.736,13.192 C61.936,12.568 61.232,11.864 60.64,11.096 C60.08,10.392 59.68,9.64 59.44,8.84 L58.32,8.84 L58.32,7.416 L63.2,7.416 L63.2,5.32 L57.104,5.32 L57.104,3.848 L63.2,3.848 L63.2,1.88 Z M64.016,12.392 C65.424,11.384 66.528,10.2 67.296,8.84 L60.944,8.84 C61.232,9.592 61.648,10.248 62.192,10.824 C62.736,11.4 63.344,11.928 64.016,12.392 Z M76.096,1.736 L77.52,2.408 C77.168,3.496 76.704,4.552 76.16,5.56 L76.16,16.68 L74.64,16.68 L74.64,7.912 C74.128,8.584 73.568,9.24 72.96,9.88 L72.48,8.296 C74.112,6.424 75.328,4.232 76.096,1.736 Z M77.696,5.224 L83.552,5.224 L83.552,1.944 L85.072,1.944 L85.072,5.224 L87.28,5.224 L87.28,6.696 L85.072,6.696 L85.072,14.824 C85.072,15.976 84.512,16.568 83.392,16.568 L81.008,16.568 L80.672,15.08 C81.424,15.144 82.16,15.176 82.864,15.176 C83.312,15.176 83.552,14.92 83.552,14.44 L83.552,6.696 L77.696,6.696 L77.696,5.224 Z M79.344,8.2 C80.528,9.592 81.44,10.808 82.08,11.864 L80.784,12.76 C80.112,11.624 79.216,10.36 78.096,8.968 L79.344,8.2 Z" id="微信支付" fill="#0C1222"></path>
                            <path d="M7.62457248,11.3344563 C6.42751118,11.9850405 6.24996405,10.9692156 6.24996405,10.9692156 L4.74970457,7.55627972 C4.17244506,5.93449446 5.24930753,6.82503947 5.24930753,6.82503947 C5.24930753,6.82503947 6.17330791,7.50649085 6.87456779,7.92174073 C7.57545253,8.3369906 8.37435208,8.04364266 8.37435208,8.04364266 L18.1823366,3.63032765 C16.3728015,1.43528509 13.3836121,0 9.99948729,0 C4.47664364,0 0,3.81961834 0,8.53161756 C0,11.2419283 1.48235221,13.6541913 3.79129021,15.2176692 L3.37489605,17.5511121 C3.37489605,17.5511121 3.17191359,18.2323432 3.87539938,17.9163773 C4.35476912,17.7009438 5.57684059,16.9289472 6.30431113,16.4591107 C7.44795073,16.8476303 8.6939069,17.0633575 10.0000375,17.0633575 C15.522431,17.0633575 20,13.2437392 20,8.53164204 C20,7.16680549 19.6226967,5.87787615 18.9543502,4.73378491 C15.8295057,6.56667102 8.56125301,10.8262378 7.62457248,11.3344563 Z" fill="#07D030" fill-rule="nonzero"></path>
                        </g>
                    </g>
                </g>
            </g>
        </g>
    </g>
</svg>