<?xml version="1.0" encoding="UTF-8"?>
<svg width="96px" height="18px" viewBox="0 0 96 18" version="1.1" xmlns="http://www.w3.org/2000/svg" xmlns:xlink="http://www.w3.org/1999/xlink">
    <!-- Generator: Sketch 49.1 (51147) - http://www.bohemiancoding.com/sketch -->
    <title>zfb_icon</title>
    <desc>Created with Sketch.</desc>
    <defs></defs>
    <g id="Page-1" stroke="none" stroke-width="1" fill="none" fill-rule="evenodd">
        <g id="Artboard-2-Copy" transform="translate(-1079.000000, -954.000000)">
            <g id="Group-36" transform="translate(-1.000000, 0.000000)">
                <g id="支付方式" transform="translate(611.000000, 759.000000)">
                    <g id="Group-41" transform="translate(298.000000, 127.000000)">
                        <g id="zfb_icon" transform="translate(171.000000, 66.000000)">
                            <path d="M18,14.3228 L18,5.4605 C17.9990065,3.54937887 16.4497988,2.00049652 14.5387731,2 L3.46032698,2 C1.54965266,2.00099312 0.000993074175,3.54973014 0,5.4605 L0,16.5395 C0.000496784117,18.4504756 1.54944697,19.9995032 3.46032698,20 L14.5387731,20 C16.2139658,19.9988023 17.6483844,18.7992259 17.9460027,17.1506 C17.0280486,16.7528 13.0502475,15.0356 10.9776511,14.0456 C9.40092995,15.9563 7.74861257,17.1029 5.25933703,17.1029 C2.7700615,17.1029 1.10784461,15.5693 1.30763462,13.6919 C1.43902805,12.4607 2.2840858,10.4474 5.95320234,10.7921 C7.88810559,10.9739 8.77276136,11.3348 10.3503825,11.8559 C10.7580621,11.1071 11.0973451,10.2836 11.3547323,9.4079 L4.36028199,9.4079 L4.36028199,8.7149 L7.82150892,8.7149 L7.82150892,7.4693 L3.59982001,7.4693 L3.59982001,6.707 L7.82060897,6.707 L7.82060897,4.9115 C7.82060897,4.9115 7.85840708,4.6307 8.16889156,4.6307 L9.89950502,4.6307 L9.89950502,6.707 L14.39928,6.707 L14.39928,7.4702 L9.89950502,7.4702 L9.89950502,8.714 L13.5704215,8.714 C13.2537949,10.024822 12.7516535,11.2837234 12.079196,12.4526 C13.1456427,12.8396 17.9991,14.3228 17.9991,14.3228 L18,14.3228 Z M4.9839508,15.9149 C2.35338233,15.9149 1.93760312,14.2544 2.07709615,13.5605 C2.21478926,12.8693 2.97705115,11.9675 4.43947803,11.9675 C6.11969402,11.9675 7.62531873,12.3977 9.43242838,13.2779 C8.16349183,14.9303 6.60386981,15.9149 4.9839508,15.9149 Z" fill="#149EF4" fill-rule="nonzero"></path>
                            <text id="支付宝支付" font-family="PingFangSC-Medium, PingFang SC" font-size="15" font-weight="400" fill="#000000">
                                <tspan x="21" y="16">支付宝支付</tspan>
                            </text>
                        </g>
                    </g>
                </g>
            </g>
        </g>
    </g>
</svg>